<?xml version="1.0" encoding="utf-8"?>
<!-- Generator: Adobe Illustrator 26.0.0, SVG Export Plug-In . SVG Version: 6.00 Build 0)  -->
<svg version="1.1" id="Layer_1" xmlns="http://www.w3.org/2000/svg" xmlns:xlink="http://www.w3.org/1999/xlink" x="0px" y="0px"
	 viewBox="0 0 1920 1080" style="enable-background:new 0 0 1920 1080;" xml:space="preserve">
<style type="text/css">
	.st0{fill:#6C4199;}
	.st1{fill:none;}
	.st2{fill:#CFB53A;}
</style>
<g>
	<g>
		<path class="st0" d="M720.02,637.47c-0.67,0-1.23,0.24-1.69,0.71c-0.45,0.47-0.68,1.05-0.68,1.72v2.72c0,0.67,0.23,1.24,0.68,1.69
			c0.45,0.45,1.02,0.68,1.69,0.68h17.65c1.18,0,2.32,0.24,3.41,0.71c1.09,0.47,2.04,1.12,2.87,1.92c0.83,0.81,1.49,1.76,1.98,2.84
			c0.49,1.09,0.74,2.26,0.74,3.52v7.29c0,1.18-0.24,2.32-0.71,3.41c-0.47,1.09-1.12,2.04-1.93,2.87c-0.81,0.83-1.76,1.49-2.84,1.98
			c-1.09,0.49-2.26,0.74-3.52,0.74h-21.32c-1.18,0-2.32-0.24-3.41-0.71c-1.09-0.47-2.05-1.1-2.9-1.9c-0.85-0.79-1.52-1.73-2.01-2.81
			c-0.49-1.09-0.74-2.26-0.74-3.52v-3.67h10.25v1.36c0,0.71,0.25,1.32,0.74,1.84c0.49,0.51,1.1,0.77,1.81,0.77h14.04
			c0.67,0,1.23-0.24,1.69-0.71c0.45-0.47,0.68-1.05,0.68-1.72v-3.2c0-0.67-0.23-1.24-0.68-1.72c-0.45-0.47-1.02-0.71-1.69-0.71
			h-17.59c-1.18,0-2.33-0.25-3.44-0.74c-1.11-0.49-2.07-1.15-2.9-1.98c-0.83-0.83-1.49-1.8-1.98-2.9c-0.49-1.1-0.74-2.29-0.74-3.55
			v-6.58c0-1.18,0.24-2.32,0.71-3.41c0.47-1.09,1.12-2.04,1.93-2.87c0.81-0.83,1.77-1.49,2.87-1.98c1.1-0.49,2.29-0.74,3.55-0.74
			h20.32c1.19,0,2.32,0.24,3.41,0.71c1.09,0.47,2.05,1.12,2.9,1.92c0.85,0.81,1.52,1.77,2.01,2.87c0.49,1.11,0.74,2.27,0.74,3.49
			v3.67h-10.25v-1.42c0-0.71-0.25-1.32-0.74-1.84c-0.49-0.51-1.1-0.77-1.81-0.77H720.02z"/>
		<path class="st0" d="M788.67,670.28h-35.18v-41.46h35.18v8.77h-25v7.23h20.44v8.77h-20.44v7.94h25V670.28z"/>
		<path class="st0" d="M804.37,670.28c-1.18,0-2.32-0.24-3.41-0.71c-1.09-0.47-2.04-1.12-2.87-1.92c-0.83-0.81-1.49-1.76-1.98-2.84
			c-0.49-1.08-0.74-2.26-0.74-3.52v-23.46c0-1.18,0.24-2.32,0.71-3.41c0.47-1.09,1.12-2.04,1.93-2.87c0.81-0.83,1.76-1.49,2.84-1.98
			c1.09-0.49,2.26-0.74,3.52-0.74h19.55c1.18,0,2.32,0.24,3.41,0.71c1.09,0.47,2.05,1.12,2.9,1.92c0.85,0.81,1.52,1.77,2.01,2.87
			c0.49,1.11,0.74,2.27,0.74,3.49v4.32h-10.25v-2.01c0-0.71-0.25-1.31-0.74-1.81c-0.49-0.49-1.1-0.74-1.81-0.74H808.1
			c-0.71,0-1.31,0.26-1.81,0.77c-0.49,0.51-0.74,1.13-0.74,1.84v18.72c0,0.71,0.25,1.32,0.74,1.84c0.49,0.51,1.1,0.77,1.81,0.77
			h12.08c0.71,0,1.31-0.25,1.81-0.74c0.49-0.49,0.74-1.1,0.74-1.81v-2.01h10.25v4.32c0,1.26-0.25,2.44-0.74,3.52
			c-0.49,1.09-1.17,2.04-2.01,2.84c-0.85,0.81-1.82,1.45-2.9,1.92c-1.09,0.47-2.22,0.71-3.41,0.71H804.37z"/>
		<path class="st0" d="M838.31,628.82h10.19v30.15c0,0.71,0.25,1.31,0.74,1.81c0.49,0.49,1.1,0.74,1.81,0.74h14.27
			c0.71,0,1.32-0.26,1.84-0.77c0.51-0.51,0.77-1.13,0.77-1.84v-30.09h10.19v32.46c0,1.18-0.24,2.32-0.71,3.41
			c-0.47,1.09-1.12,2.04-1.92,2.87c-0.81,0.83-1.76,1.49-2.84,1.98c-1.09,0.49-2.26,0.74-3.52,0.74h-21.8
			c-1.26,0-2.44-0.25-3.52-0.74c-1.09-0.49-2.03-1.16-2.84-1.98c-0.81-0.83-1.45-1.79-1.93-2.87c-0.47-1.09-0.71-2.22-0.71-3.41
			V628.82z"/>
		<path class="st0" d="M915.78,628.82c1.19,0,2.32,0.24,3.41,0.71c1.09,0.47,2.04,1.12,2.87,1.92c0.83,0.81,1.49,1.76,1.98,2.84
			c0.49,1.09,0.74,2.26,0.74,3.52v9.12c0,1.15-0.22,2.24-0.65,3.29c-0.44,1.05-1.04,1.97-1.81,2.78c-0.77,0.81-1.71,1.47-2.81,1.98
			c-1.11,0.51-2.33,0.81-3.67,0.89l9.3,14.39h-11.08l-9.3-14.33h-9.18v14.33h-10.19v-41.46H915.78z M914.6,640.19
			c0-0.71-0.25-1.32-0.74-1.84c-0.49-0.51-1.1-0.77-1.81-0.77h-16.47v9.6h16.47c0.71,0,1.31-0.26,1.81-0.77
			c0.49-0.51,0.74-1.12,0.74-1.84V640.19z"/>
		<path class="st0" d="M966.78,670.28H931.6v-41.46h35.18v8.77h-25v7.23h20.44v8.77h-20.44v7.94h25V670.28z"/>
		<path class="st0" d="M1026.84,628.82c1.18,0,2.32,0.24,3.41,0.71c1.08,0.47,2.04,1.12,2.87,1.92c0.83,0.81,1.49,1.76,1.98,2.84
			s0.74,2.26,0.74,3.52v9.12c0,1.15-0.22,2.24-0.65,3.29s-1.04,1.97-1.81,2.78c-0.77,0.81-1.71,1.47-2.81,1.98
			c-1.11,0.51-2.33,0.81-3.67,0.89l9.3,14.39h-11.08l-9.3-14.33h-9.18v14.33h-10.19v-41.46H1026.84z M1025.66,640.19
			c0-0.71-0.25-1.32-0.74-1.84c-0.49-0.51-1.1-0.77-1.81-0.77h-16.47v9.6h16.47c0.71,0,1.31-0.26,1.81-0.77
			c0.49-0.51,0.74-1.12,0.74-1.84V640.19z"/>
		<path class="st0" d="M1072.51,628.82c1.18,0,2.33,0.24,3.44,0.71c1.1,0.47,2.07,1.12,2.9,1.92c0.83,0.81,1.49,1.76,1.98,2.84
			c0.49,1.09,0.74,2.26,0.74,3.52v23.46c0,1.18-0.24,2.32-0.71,3.41c-0.47,1.09-1.12,2.04-1.92,2.87c-0.81,0.83-1.77,1.49-2.87,1.98
			c-1.11,0.49-2.29,0.74-3.55,0.74h-21.74c-1.18,0-2.32-0.24-3.41-0.71c-1.09-0.47-2.04-1.12-2.87-1.92
			c-0.83-0.81-1.49-1.76-1.98-2.84c-0.49-1.08-0.74-2.26-0.74-3.52v-23.46c0-1.18,0.24-2.32,0.71-3.41s1.12-2.04,1.92-2.87
			s1.76-1.49,2.84-1.98c1.08-0.49,2.26-0.74,3.52-0.74H1072.51z M1071.38,640.19c0-0.71-0.26-1.32-0.77-1.84
			c-0.51-0.51-1.13-0.77-1.84-0.77h-14.28c-0.67,0-1.26,0.26-1.78,0.77c-0.51,0.51-0.77,1.13-0.77,1.84v18.72
			c0,0.71,0.26,1.32,0.77,1.84c0.51,0.51,1.11,0.77,1.78,0.77h14.28c0.71,0,1.32-0.26,1.84-0.77c0.51-0.51,0.77-1.13,0.77-1.84
			V640.19z"/>
		<path class="st0" d="M1119.01,628.82c1.18,0,2.33,0.24,3.44,0.71c1.1,0.47,2.07,1.12,2.9,1.92c0.83,0.81,1.49,1.76,1.98,2.84
			c0.49,1.09,0.74,2.26,0.74,3.52v23.46c0,1.18-0.24,2.32-0.71,3.41c-0.47,1.09-1.12,2.04-1.92,2.87c-0.81,0.83-1.77,1.49-2.87,1.98
			c-1.11,0.49-2.29,0.74-3.55,0.74h-21.74c-1.18,0-2.32-0.24-3.41-0.71c-1.09-0.47-2.04-1.12-2.87-1.92
			c-0.83-0.81-1.49-1.76-1.98-2.84c-0.49-1.08-0.74-2.26-0.74-3.52v-23.46c0-1.18,0.24-2.32,0.71-3.41s1.12-2.04,1.92-2.87
			s1.76-1.49,2.84-1.98c1.08-0.49,2.26-0.74,3.52-0.74H1119.01z M1117.88,640.19c0-0.71-0.26-1.32-0.77-1.84
			c-0.51-0.51-1.13-0.77-1.84-0.77H1101c-0.67,0-1.26,0.26-1.78,0.77c-0.51,0.51-0.77,1.13-0.77,1.84v18.72
			c0,0.71,0.26,1.32,0.77,1.84c0.51,0.51,1.11,0.77,1.78,0.77h14.28c0.71,0,1.32-0.26,1.84-0.77c0.51-0.51,0.77-1.13,0.77-1.84
			V640.19z"/>
		<path class="st0" d="M1170.18,637.59h-14.39v32.7h-10.19v-32.7h-14.39v-8.77h38.98V637.59z"/>
		<path class="st0" d="M1186.12,637.47c-0.67,0-1.23,0.24-1.69,0.71c-0.45,0.47-0.68,1.05-0.68,1.72v2.72
			c0,0.67,0.23,1.24,0.68,1.69c0.45,0.45,1.02,0.68,1.69,0.68h17.65c1.18,0,2.32,0.24,3.41,0.71c1.08,0.47,2.04,1.12,2.87,1.92
			s1.49,1.76,1.98,2.84c0.49,1.09,0.74,2.26,0.74,3.52v7.29c0,1.18-0.24,2.32-0.71,3.41c-0.47,1.09-1.12,2.04-1.92,2.87
			s-1.76,1.49-2.84,1.98c-1.09,0.49-2.26,0.74-3.52,0.74h-21.32c-1.18,0-2.32-0.24-3.41-0.71c-1.09-0.47-2.05-1.1-2.9-1.9
			c-0.85-0.79-1.52-1.73-2.01-2.81c-0.49-1.09-0.74-2.26-0.74-3.52v-3.67h10.25v1.36c0,0.71,0.25,1.32,0.74,1.84
			c0.49,0.51,1.1,0.77,1.81,0.77h14.04c0.67,0,1.23-0.24,1.69-0.71c0.45-0.47,0.68-1.05,0.68-1.72v-3.2c0-0.67-0.23-1.24-0.68-1.72
			c-0.45-0.47-1.02-0.71-1.69-0.71h-17.59c-1.18,0-2.33-0.25-3.44-0.74c-1.11-0.49-2.07-1.15-2.9-1.98c-0.83-0.83-1.49-1.8-1.98-2.9
			c-0.49-1.1-0.74-2.29-0.74-3.55v-6.58c0-1.18,0.24-2.32,0.71-3.41s1.12-2.04,1.92-2.87s1.77-1.49,2.87-1.98
			c1.11-0.49,2.29-0.74,3.55-0.74h20.32c1.18,0,2.32,0.24,3.41,0.71s2.05,1.12,2.9,1.92c0.85,0.81,1.52,1.77,2.01,2.87
			c0.49,1.11,0.74,2.27,0.74,3.49v3.67h-10.25v-1.42c0-0.71-0.25-1.32-0.74-1.84c-0.49-0.51-1.1-0.77-1.81-0.77H1186.12z"/>
	</g>
	<g>
		<path class="st0" d="M763.68,700.4c-1.81,0-3.35-0.37-4.61-1.12s-2.07-1.93-2.44-3.56l2.41-0.84c0.5,2.05,1.99,3.08,4.46,3.08
			c1.24,0,2.23-0.21,2.95-0.64s1.09-0.98,1.09-1.65v-0.1c0-0.33-0.09-0.63-0.27-0.91c-0.18-0.28-0.38-0.51-0.61-0.69
			c-0.22-0.18-0.57-0.38-1.04-0.59c-0.47-0.21-0.84-0.37-1.11-0.46s-0.71-0.23-1.3-0.43c-1.81-0.64-3.07-1.18-3.76-1.62
			c-1.47-0.94-2.2-2.17-2.2-3.69v-0.22c0-1.33,0.58-2.41,1.75-3.24c1.17-0.83,2.72-1.24,4.65-1.24c1.69,0,3.16,0.34,4.39,1.03
			c1.23,0.69,2,1.8,2.29,3.32l-2.41,0.81c-0.19-0.93-0.69-1.63-1.49-2.08c-0.8-0.45-1.74-0.68-2.81-0.68c-1.04,0-1.88,0.2-2.54,0.59
			c-0.66,0.39-0.98,0.93-0.98,1.6v0.1c0,0.38,0.1,0.71,0.31,1c0.21,0.29,0.54,0.55,1.01,0.79c0.47,0.24,0.89,0.43,1.28,0.58
			c0.39,0.15,0.95,0.34,1.67,0.57c1.88,0.61,3.15,1.12,3.81,1.53c1.43,0.9,2.16,2.13,2.18,3.69v0.25c0,1.48-0.6,2.65-1.8,3.52
			S765.73,700.4,763.68,700.4z"/>
		<path class="st0" d="M777.75,697.59h10.18v2.46h-13.06v-17.23h13.01v2.46h-10.13v5.02h9.48v2.46h-9.48V697.59z"/>
		<path class="st0" d="M799.26,700.4c-2.19,0-4.03-0.61-5.49-1.82c-1.47-1.21-2.2-2.87-2.2-4.97v-4.36c0-2.07,0.73-3.71,2.2-4.94
			s3.29-1.83,5.47-1.83c1.85,0,3.44,0.47,4.77,1.4c1.33,0.94,2.13,2.32,2.41,4.16l-2.64,0.54c-0.21-1.3-0.74-2.23-1.59-2.79
			c-0.85-0.57-1.84-0.85-2.97-0.85c-1.42,0-2.57,0.41-3.45,1.22s-1.32,1.92-1.32,3.31v3.91c0,1.41,0.44,2.52,1.33,3.34
			c0.89,0.81,2.02,1.22,3.41,1.22c1.21,0,2.22-0.33,3.03-0.98s1.33-1.57,1.55-2.73l2.67,0.59c-0.31,1.79-1.11,3.17-2.41,4.14
			C802.73,699.91,801.14,700.4,799.26,700.4z"/>
		<path class="st0" d="M822.74,698.7c-1.31,1.13-3,1.7-5.05,1.7c-2.06,0-3.74-0.57-5.05-1.7c-1.31-1.13-1.97-2.68-1.97-4.65v-11.23
			h2.85V694c0,1.17,0.38,2.11,1.15,2.84c0.77,0.73,1.77,1.1,3.02,1.1c1.24,0,2.25-0.37,3.02-1.1c0.77-0.73,1.15-1.68,1.15-2.84
			v-11.18h2.85v11.23C824.71,696.02,824.05,697.57,822.74,698.7z"/>
		<path class="st0" d="M844.06,700.05h-3.5l-3.91-5.81h-4.12v5.81h-2.88v-17.23h6.82c2.25,0,4.02,0.46,5.31,1.38
			c1.3,0.92,1.94,2.27,1.94,4.06v0.54c0,1.21-0.35,2.25-1.06,3.11c-0.71,0.86-1.68,1.49-2.9,1.88L844.06,700.05z M832.53,685.28
			v6.52h3.81c3.02,0,4.54-1.02,4.54-3.05v-0.32c0-1.17-0.38-1.98-1.14-2.45c-0.76-0.47-1.89-0.7-3.4-0.7H832.53z"/>
		<path class="st0" d="M848.49,700.05v-17.23h2.85v17.23H848.49z"/>
		<path class="st0" d="M869.72,682.82v2.46h-5.62v14.77h-2.88v-14.77h-5.62v-2.46H869.72z"/>
		<path class="st0" d="M885.27,682.82h3.19l-6.58,11.03v6.2h-2.85v-6.3l-6.5-10.93h3.29l4.72,8.08L885.27,682.82z"/>
		<path class="st0" d="M905.61,682.82c2.33,0,4.28,0.64,5.84,1.93c1.56,1.29,2.35,3.05,2.35,5.28v2.81c0,2.23-0.78,3.99-2.35,5.28
			c-1.56,1.29-3.51,1.93-5.84,1.93h-6.3v-17.23H905.61z M910.92,692.87v-2.88c0-1.59-0.52-2.77-1.55-3.54s-2.34-1.16-3.91-1.16
			h-3.27v12.31h3.27c1.57,0,2.88-0.39,3.91-1.17S910.92,694.46,910.92,692.87z"/>
		<path class="st0" d="M931.06,698.53c-1.45,1.25-3.26,1.87-5.42,1.87s-3.96-0.62-5.42-1.87s-2.18-2.88-2.18-4.9v-4.41
			c0-2.02,0.73-3.65,2.19-4.89c1.46-1.24,3.26-1.86,5.4-1.86s3.94,0.62,5.4,1.86s2.19,2.87,2.19,4.89v4.41
			C933.23,695.65,932.51,697.28,931.06,698.53z M925.64,697.96c1.35,0,2.47-0.41,3.37-1.23c0.9-0.82,1.35-1.89,1.35-3.2v-4.19
			c0-1.33-0.45-2.4-1.35-3.21c-0.9-0.81-2.02-1.22-3.37-1.22c-1.35,0-2.47,0.41-3.37,1.22c-0.9,0.81-1.35,1.88-1.35,3.21v4.19
			c0,1.31,0.45,2.38,1.36,3.2C923.19,697.55,924.31,697.96,925.64,697.96z"/>
		<path class="st0" d="M940.98,700.1l-4.69-17.28h3.01l3.5,13.47h0.05l3.65-13.47h2.85l3.58,13.34h0.03l3.52-13.34h2.95l-4.79,17.28
			h-3.52l-3.21-12.01h-0.05l-3.37,12.01H940.98z"/>
		<path class="st0" d="M963.32,700.05v-17.23h2.72l9.04,12.41h0.05v-12.41h2.8v17.23h-2.67l-9.1-12.41h-0.03v12.41H963.32z"/>
		<path class="st0" d="M1003.1,682.82v2.46h-5.62v14.77h-2.88v-14.77h-5.62v-2.46H1003.1z"/>
		<path class="st0" d="M1019.06,698.53c-1.45,1.25-3.26,1.87-5.42,1.87c-2.16,0-3.96-0.62-5.42-1.87s-2.18-2.88-2.18-4.9v-4.41
			c0-2.02,0.73-3.65,2.19-4.89s3.26-1.86,5.4-1.86c2.14,0,3.94,0.62,5.4,1.86c1.46,1.24,2.19,2.87,2.19,4.89v4.41
			C1021.24,695.65,1020.51,697.28,1019.06,698.53z M1013.64,697.96c1.35,0,2.47-0.41,3.37-1.23s1.35-1.89,1.35-3.2v-4.19
			c0-1.33-0.45-2.4-1.35-3.21s-2.02-1.22-3.37-1.22s-2.47,0.41-3.37,1.22s-1.35,1.88-1.35,3.21v4.19c0,1.31,0.45,2.38,1.36,3.2
			C1011.2,697.55,1012.31,697.96,1013.64,697.96z"/>
		<path class="st0" d="M1045.96,682.82v2.46h-5.62v14.77h-2.88v-14.77h-5.62v-2.46H1045.96z"/>
		<path class="st0" d="M1061.3,682.82h2.85v17.23h-2.85v-7.31h-8.42v7.31H1050v-17.23h2.88v7.48h8.42V682.82z"/>
		<path class="st0" d="M1072.16,697.59h10.18v2.46h-13.06v-17.23h13.01v2.46h-10.13v5.02h9.49v2.46h-9.49V697.59z"/>
		<path class="st0" d="M1108.1,700.05h-3.5l-3.91-5.81h-4.12v5.81h-2.88v-17.23h6.82c2.25,0,4.02,0.46,5.31,1.38
			c1.3,0.92,1.94,2.27,1.94,4.06v0.54c0,1.21-0.35,2.25-1.06,3.11c-0.71,0.86-1.68,1.49-2.9,1.88L1108.1,700.05z M1096.57,685.28
			v6.52h3.81c3.02,0,4.54-1.02,4.54-3.05v-0.32c0-1.17-0.38-1.98-1.14-2.45c-0.76-0.47-1.89-0.7-3.39-0.7H1096.57z"/>
		<path class="st0" d="M1124.74,698.53c-1.45,1.25-3.26,1.87-5.42,1.87c-2.16,0-3.96-0.62-5.42-1.87s-2.18-2.88-2.18-4.9v-4.41
			c0-2.02,0.73-3.65,2.19-4.89s3.26-1.86,5.4-1.86c2.14,0,3.94,0.62,5.4,1.86c1.46,1.24,2.19,2.87,2.19,4.89v4.41
			C1126.92,695.65,1126.19,697.28,1124.74,698.53z M1119.32,697.96c1.35,0,2.47-0.41,3.37-1.23s1.35-1.89,1.35-3.2v-4.19
			c0-1.33-0.45-2.4-1.35-3.21s-2.02-1.22-3.37-1.22s-2.47,0.41-3.37,1.22s-1.35,1.88-1.35,3.21v4.19c0,1.31,0.45,2.38,1.36,3.2
			C1116.87,697.55,1117.99,697.96,1119.32,697.96z"/>
		<path class="st0" d="M1144.17,698.53c-1.45,1.25-3.26,1.87-5.42,1.87c-2.16,0-3.96-0.62-5.42-1.87s-2.18-2.88-2.18-4.9v-4.41
			c0-2.02,0.73-3.65,2.19-4.89s3.26-1.86,5.4-1.86c2.14,0,3.94,0.62,5.4,1.86c1.46,1.24,2.19,2.87,2.19,4.89v4.41
			C1146.35,695.65,1145.62,697.28,1144.17,698.53z M1138.76,697.96c1.35,0,2.47-0.41,3.37-1.23s1.35-1.89,1.35-3.2v-4.19
			c0-1.33-0.45-2.4-1.35-3.21s-2.02-1.22-3.37-1.22s-2.47,0.41-3.37,1.22s-1.35,1.88-1.35,3.21v4.19c0,1.31,0.45,2.38,1.36,3.2
			C1136.31,697.55,1137.43,697.96,1138.76,697.96z"/>
		<path class="st0" d="M1163.43,682.82v2.46h-5.62v14.77h-2.88v-14.77h-5.62v-2.46H1163.43z"/>
	</g>
	<path class="st1" d="M913.91,783.79c-0.19,0.75-0.36,1.51-0.64,2.21c-3.02,7.69-8.15,11.55-14.9,11.68
		c-11.23,0.22-22.46,0.07-33.69,0.07c-3.87,0-7.74,0-11.63,0c-0.21,0.6-0.38,1.1-0.54,1.6c-2.1,6.53-5.9,10.32-11.63,10.7
		c-3.36,0.22-6.73,0.08-10.09,0.1c-1.17,0.01-2.33,0-3.5,0c1.96,0.92,3.48,2.31,4.51,4.44c0.47,0.03,0.84,0.07,1.22,0.07
		c8.7,0.01,17.4,0.01,26.1,0.01c9.53,0,19.05-0.1,28.58,0.03c5.32,0.07,9.15,3.26,11.31,9.35c0.2,0.56,0.42,1.12,0.65,1.73h14.44
		c9.75-14.72,19.52-29.48,29.48-44.52H914.5C914.26,782.28,914.11,783.04,913.91,783.79z"/>
	<path class="st1" d="M1004.87,781.24h-28.91c10.02,15.12,19.78,29.86,29.51,44.55h14.41c0.13-0.23,0.27-0.4,0.34-0.61
		c2.55-7.51,6.21-10.53,12.76-10.53c16.71,0,33.41,0,50.12,0.01c1.51,0,3.03,0,3.93,0c1.92-1.73,3.38-3.05,4.88-4.4
		c-0.34-0.04-0.71-0.13-1.07-0.13c-3.56,0-7.11,0-10.67,0.01c-6.64,0.02-11.07-3.82-13.3-11.49c-0.08-0.28-0.24-0.53-0.37-0.81
		c-0.48-0.03-0.93-0.08-1.37-0.09c-7.62-0.01-15.24-0.02-22.86-0.02c-7.05,0-14.1,0.16-21.15-0.04c-6.29-0.18-11.21-3.57-14.23-10.6
		C1006.11,785.26,1005.56,783.26,1004.87,781.24z"/>
	<path class="st0" d="M1175.14,723.89c-1.85-0.86-3.72-0.94-5.61-0.28c-2.95,1.03-4.78,3.65-6.07,6.91c-4.14,0-8.14,0-12.14,0
		c-18.55,0-37.1-0.03-55.65,0.03c-4.29,0.01-7.96,2.07-10.59,6.32c-1.33,2.14-2.25,4.67-3.52,7.37c-0.34,0-1.03,0-1.72,0
		c-15.69,0-31.39,0-47.08,0.01c-0.95,0-1.92-0.03-2.85,0.13c-6.51,1.12-11.62,4.83-14.47,12.44c-0.68,1.82-1.09,3.8-1.63,5.7
		c-0.23,0.05-0.41,0.13-0.6,0.13c-7.62,0.01-15.25,0.01-22.87,0.02c-2.07,0-3.71-1.18-4.9-3.13c-0.87-1.42-1.59-3.04-2.11-4.7
		c-7.39,4.49-14.69,8.52-21.64,12.19c-0.51,0.27-1.08,0.41-1.64,0.41c-0.56,0-1.12-0.13-1.63-0.4c-7.06-3.7-14.52-7.78-22.09-12.41
		c-0.23,0.76-0.48,1.52-0.78,2.27c-1.51,3.74-3.73,5.89-7.35,5.8c-6.86-0.17-13.72-0.04-20.58-0.04c-0.67,0-1.35-0.08-1.9-0.11
		c-0.54-2.05-0.84-3.94-1.5-5.61c-3.36-8.45-9.05-12.59-16.51-12.66c-15.75-0.15-31.51-0.04-47.26-0.04c-0.94,0-1.88,0-2.62,0
		c-0.23-0.31-0.3-0.36-0.32-0.42c-0.16-0.51-0.31-1.03-0.46-1.54c-1.23-4.24-3.43-7.44-6.62-9.64c-2.47-1.7-5.12-2.14-7.9-2.13
		c-21.35,0.03-42.69,0.01-64.04,0.01h-2.28c-3.4-6.43-6.88-8.48-11.33-6.87c-3.68,1.33-6.33,5.78-6.34,10.63
		c-0.01,4.96,2.49,9.18,6.29,10.61c4.53,1.71,7.96-0.29,11.41-6.78h1.79c21.47,0,42.94,0,64.41,0c0.7,0,1.4,0,2.09,0.09
		c3.31,0.47,6.21,3.58,6.91,7.38c0.78,4.25-0.53,8.3-3.41,10.71c-1.6,1.33-3.37,1.72-5.24,1.72c-19.19,0-38.37,0-57.56,0
		c-0.56,0-1.13-0.06-1.64-0.09c-2.83-5.9-6.45-8.28-10.59-7.02c-4.13,1.25-6.8,5.27-6.96,10.47c-0.16,5.02,2.24,9.61,6.17,10.92
		c4.84,1.6,7.65,0.13,11.39-6.61c0.22-0.03,0.47-0.08,0.72-0.08c5.71-0.01,11.43-0.01,17.14-0.01c13.91,0,27.83,0.02,41.74-0.01
		c6.58-0.01,11.58-4.37,13.86-11.95c0.17-0.57,0.37-1.13,0.56-1.71c0.53-0.03,0.97-0.08,1.41-0.08c8.89-0.01,17.79-0.01,26.68-0.01
		c7.24,0,14.49-0.04,21.73,0.01c4.34,0.03,7.91,2.11,10.42,6.57c1.31,2.34,1.73,5.06,1.86,8.16h-20.8c-3-6.01-6.56-8.32-10.66-7.01
		c-4.11,1.31-6.86,5.43-6.99,10.48c-0.13,4.89,2.31,9.31,6.02,10.91c4.43,1.91,7.8-0.01,11.67-6.66h29.48
		c0.29,2.91,0.14,5.54-0.68,8.07c-1.57,4.85-5.3,7.77-9.98,7.78c-14.35,0.02-28.71,0.01-43.06,0.01c-0.57,0-1.13,0-1.67,0
		c-0.17-0.43-0.3-0.7-0.39-0.98c-2.6-8-6.63-11.37-13.57-11.37c-17.47,0-34.94,0-52.41,0h-6.73c-3.23-6.36-6.6-8.47-11-7
		c-3.83,1.28-6.59,5.6-6.73,10.53c-0.13,4.64,2.44,9.12,6.08,10.59c4.42,1.79,7.84-0.13,11.55-6.54h7.2c8.83,0,17.66,0,26.49,0
		c8.89,0,17.79-0.05,26.68,0.04c5.21,0.05,8.43,6.68,6.06,12.42c-1.46,3.53-3.96,4.73-7.1,4.71c-13.98-0.08-27.95-0.05-41.93-0.06
		c-0.62,0-1.25,0-1.78,0c-3.1-6.23-6.63-8.36-11.07-6.84c-3.79,1.3-6.56,5.79-6.59,10.67c-0.03,4.72,2.68,9.31,6.32,10.68
		c3.67,1.39,8.37,0.28,11.4-6.76h29.9c-4.15,2.02-5.73,4.28-5.79,8.01c-0.05,3.47,1.42,6.5,3.92,7.64c3.55,1.62,6.32,0.05,8.39-3.65
		H833c18.04,0,36.09,0,54.13,0c0.25,0,0.51-0.01,0.76,0.01c3.43,0.32,5.86,3.49,5.79,7.55c-0.08,4.15-2.65,7.08-6.31,7.08
		c-11.63,0.02-23.25,0.01-34.88,0c-0.49,0-0.98-0.09-1.4-0.13c-3.02-6.04-6.61-8.25-10.89-6.8c-3.93,1.33-6.58,5.46-6.72,10.49
		c-0.14,4.84,2.51,9.42,6.3,10.89c4.49,1.74,7.8-0.17,11.5-6.81c0.59,0,1.34,0,2.09,0c11.25,0,22.49,0.06,33.74-0.06
		c1.86-0.02,3.81-0.46,5.55-1.27c3.55-1.65,5.63-5.18,6.91-9.7h17.22c9.65-14.48,19.2-28.81,28.75-43.15
		c0.14,0.07,0.27,0.14,0.41,0.21c-1.83,23.8-3.67,47.59-5.51,71.52h-12.2c-2.21-7.85-7.38-11.17-13.06-11.11
		c-14.42,0.16-28.84,0.05-43.26,0.05c-0.75,0-1.5,0-2.12,0c-3.77-5.85-8.29-6.85-11.85-2.81c-3.13,3.55-3.11,9.85,0.04,13.43
		c3.48,3.96,8.2,2.8,11.92-3.01c0.32,0,0.7,0,1.07,0c14.87-0.01,29.73-0.01,44.6-0.01c0.51,0,1.02,0.02,1.52,0.13
		c3.35,0.69,5.39,3.85,5.22,7.91c-0.14,3.43-2.86,6.68-6.06,6.63c-9.08-0.15-18.17-0.03-27.25-0.03c-0.43,0-0.87-0.11-1.23-0.15
		c-0.33-0.73-0.58-1.36-0.9-1.95c-2.77-5.25-8.43-6.75-12.55-3.34c-4.22,3.5-5.28,10.27-2.53,15.58c1.4,2.71,3.54,3.92,5.85,4.9
		h3.43c2.04-1.08,4.15-2.03,5.41-4.52c0.44-0.86,0.86-1.73,1.44-2.89H890c8.51,0,17.02-0.18,25.53,0.06
		c6.77,0.19,11.09-4.8,12.66-11.04h18.19c1.72-20.64,3.42-41.07,5.15-61.79c1.79,0.2,3.46,0.38,5.26,0.57v35.81
		c-2.39,1.33-4.29,3.39-5.23,6.6c-0.7,2.37-0.77,4.82-0.21,7.18c1.02,4.25,4.47,8.29,9.31,7.89c3.93-0.32,7.4-4.06,8.18-9.04
		c0.82-5.23-1.37-10.13-5.7-12.59v-35.84c1.61-0.22,3.09-0.42,4.88-0.66c1.73,20.69,3.44,41.18,5.16,61.8h17.98
		c0.75,1.75,1.28,3.45,2.12,4.87c2.39,4.04,5.61,6.21,9.75,6.19c8.76-0.04,17.53-0.01,26.29-0.01c0.82,0,1.64,0,2.51,0
		c1.04,3.99,3.59,5.82,6.31,7.41h4.19c0.61-0.35,1.21-0.71,1.82-1.06c4.2-2.43,6.22-8.54,4.59-13.9c-1.69-5.57-6.4-8.49-10.94-6.87
		c-2.9,1.03-4.75,3.44-6.04,6.81h-2.1c-8.07,0-16.14,0-24.2,0c-0.95,0-1.91,0.03-2.86-0.07c-2.95-0.29-5.07-2.88-5.35-6.48
		c-0.27-3.54,1.46-6.75,4.26-7.63c1.09-0.34,2.26-0.43,3.39-0.43c14.36-0.03,28.72-0.01,43.07-0.01h1.76
		c3.38,5.66,8.13,6.91,11.66,3.22c3.26-3.41,3.44-9.61,0.39-13.4c-3.47-4.33-7.95-3.4-12.06,2.57c-0.88,0-1.83,0-2.78,0
		c-14.36,0-28.72,0-43.08-0.01c-3.36,0-6.39,1.17-8.92,3.97c-1.73,1.92-2.85,4.37-3.51,7.07h-12.32
		c-1.84-23.96-3.67-47.74-5.49-71.51c0.15-0.05,0.3-0.1,0.45-0.15c9.55,14.36,19.11,28.71,28.74,43.19h17.21
		c2.52,7.82,6.26,10.98,12.91,10.98c9.47,0,18.93-0.03,28.4-0.04c2.34,0,4.69,0,6.89,0c4.05,6.69,7.43,8.62,11.7,6.82
		c3.63-1.53,6.29-6.18,6.19-10.83c-0.11-4.8-2.72-9.21-6.54-10.42c-5.01-1.59-8.42,0.79-11.18,6.73c-0.4,0.04-0.84,0.12-1.28,0.12
		c-11.37-0.01-22.74-0.03-34.12-0.04c-0.64,0-1.28,0.05-1.9-0.06c-2.33-0.4-4.01-1.9-4.81-4.68c-0.8-2.75-0.44-5.25,1.17-7.44
		c1.39-1.88,3.17-2.47,5.15-2.47c15.76,0,31.51-0.02,47.27-0.03c2.59,0,5.19,0,7.75,0c1.83,3.47,4.3,4.98,7.42,4.04
		c2.6-0.78,4.41-2.94,4.79-6.31c0.56-4.97-1.53-8-5.52-9.63h29.77c3.22,6.22,6.68,8.28,11.08,6.74c3.72-1.3,6.38-5.42,6.57-10.19
		c0.19-4.67-2.39-9.46-5.98-10.99c-1.91-0.81-3.86-0.84-5.81-0.11c-2.8,1.05-4.56,3.53-5.75,6.73h-1.83c-12.23,0-24.47,0-36.7,0
		c-2.35,0-4.71,0.13-7.05-0.07c-4.47-0.39-7.41-6.59-5.6-11.66c1.26-3.52,3.45-5.35,6.56-5.36c10.73-0.02,21.46-0.02,32.19-0.02
		c8.58,0,17.15,0,25.73,0h2.18c2.84,6.01,6.46,8.3,10.85,6.99c3.77-1.13,6.58-5.43,6.82-10.46c0.22-4.53-2.32-9.1-5.93-10.78
		c-1.92-0.89-3.82-0.98-5.78-0.22c-2.85,1.11-4.68,3.6-5.9,6.76c-0.4,0.05-0.65,0.12-0.9,0.12c-9.52,0.01-19.05,0.01-28.57,0.01
		c-10.55,0-21.09-0.04-31.64,0.03c-3.04,0.02-5.66,1.59-7.92,4.05c-2.01,2.18-3.29,4.95-4.08,8.25c-0.6,0-1.16,0-1.73,0
		c-14.42,0.01-28.84,0.06-43.26-0.05c-1.72-0.01-3.54-0.63-5.12-1.49c-4.16-2.24-6.69-9.18-5.4-14.36h29.52
		c3.26,6.36,6.68,8.41,11.25,6.89c3.58-1.19,6.27-5.53,6.42-10.33c0.15-4.7-2.32-9.28-5.87-10.81c-1.91-0.82-3.82-0.84-5.8-0.16
		c-2.93,1.01-4.62,3.66-5.9,6.63h-20.88c0.13-3.2,0.68-6.04,2.16-8.51c2.53-4.24,6.03-6.1,10.22-6.11c15.12-0.01,30.24,0,45.36,0
		h4.23c0.19,0.33,0.3,0.44,0.34,0.59c1.73,7.66,7.15,13.41,15.07,13.22c10.41-0.25,20.82-0.19,31.23-0.19
		c8.32,0,16.64,0.09,24.96,0.14c0.88,0.01,1.77,0,2.59,0c3.06,7.35,7.33,7.9,10.99,6.88c3.78-1.05,6.4-5.34,6.52-10.14
		c0.13-5.27-2.23-9.58-5.98-11.08c-1.94-0.78-3.84-0.84-5.79-0.04c-2.77,1.14-4.51,3.6-5.66,6.67c-0.33,0.05-0.52,0.11-0.71,0.11
		c-8.32,0.01-16.64,0.01-24.96,0.01c-8,0-15.99,0.01-23.99,0.01c-3.49,0-6.99,0.06-10.48-0.02c-3.56-0.08-6.57-2.86-7.64-6.91
		c-1.05-3.99-0.06-8.01,2.64-10.79c1.6-1.64,3.46-2.18,5.5-2.17c21.79,0,43.58-0.01,65.37-0.01c0.56,0,1.13,0.07,1.63,0.11
		c3.17,6.06,6.7,8.29,10.86,6.91c3.9-1.29,6.64-5.52,6.77-10.47C1181.17,729.87,1178.83,725.6,1175.14,723.89z M914.1,825.77h-14.44
		c-0.23-0.61-0.45-1.17-0.65-1.73c-2.17-6.09-6-9.28-11.31-9.35c-9.53-0.13-19.05-0.03-28.58-0.03c-8.7,0-17.4,0-26.1-0.01
		c-0.38,0-0.75-0.04-1.22-0.07c-1.04-2.13-2.56-3.52-4.51-4.44c1.17,0,2.33,0.01,3.5,0c3.37-0.02,6.74,0.12,10.09-0.1
		c5.73-0.38,9.53-4.16,11.63-10.7c0.16-0.5,0.34-0.99,0.54-1.6c3.89,0,7.76,0,11.63,0c11.23,0,22.47,0.15,33.69-0.07
		c6.75-0.13,11.88-3.99,14.9-11.68c0.27-0.7,0.45-1.46,0.64-2.21c0.19-0.75,0.35-1.51,0.58-2.54h29.07
		C933.61,796.29,923.84,811.05,914.1,825.77z M1021.12,797.7c7.05,0.2,14.1,0.04,21.15,0.04c7.62,0,15.24,0.01,22.86,0.02
		c0.44,0,0.88,0.05,1.37,0.09c0.13,0.28,0.29,0.53,0.37,0.81c2.23,7.68,6.66,11.51,13.3,11.49c3.56-0.01,7.11-0.02,10.67-0.01
		c0.36,0,0.73,0.08,1.07,0.13c-1.5,1.35-2.96,2.67-4.88,4.4c-0.9,0-2.42,0-3.93,0c-16.71,0-33.41-0.01-50.12-0.01
		c-6.56,0-10.22,3.03-12.76,10.53c-0.07,0.21-0.21,0.38-0.34,0.61h-14.41c-9.73-14.69-19.49-29.43-29.51-44.55h28.91
		c0.69,2.02,1.24,4.02,2.03,5.86C1009.91,794.13,1014.84,797.53,1021.12,797.7z"/>
	<path class="st2" d="M803.18,271.04c-1.2-4.56-4.76-7.24-8.43-9.87c5,1.5,9.23,4.18,12.52,8.34c0.24-0.39,0.36-0.5,0.39-0.63
		c0.06-0.28,0.1-0.58,0.11-0.86c0.08-4.06-1.38-7.57-4.02-10.56c-5.1-5.75-11.64-7.44-19.01-6.29c-3.47,0.54-6.72,1.78-9.77,3.96
		C781.84,265,790.52,271.42,803.18,271.04z"/>
	<path class="st2" d="M1125.35,261.22c-3.63,2.59-7.16,5.22-8.48,10.18c5.91-1.04,11.59-1.08,16.43-4.44
		c4.64-3.22,8.67-7,11.74-11.74c-0.27-0.31-0.38-0.52-0.55-0.63c-5.04-3.01-10.5-4.42-16.32-3.52c-7.13,1.1-12.35,4.97-14.98,11.83
		c-0.75,1.96-1.37,4.11-0.34,6.6C1116.24,265.28,1120.41,262.65,1125.35,261.22z"/>
	<path class="st2" d="M1203.11,390.73c-5.38,1.34-9.52,4.3-11.86,9.45c-0.68,1.49-1.1,3.08-0.67,5.12c3.73-3.93,8.28-5.4,13.18-6.17
		c-3.81,2.01-7.91,3.67-9.49,8.2c1.52,0,2.92-0.17,4.26,0.03c8.05,1.19,14.54-1.97,20.23-7.24c1.52-1.4,2.69-3.18,4.43-5.26
		c-3.5-1.39-6.36-2.65-9.3-3.65C1210.37,390.01,1206.74,389.83,1203.11,390.73z"/>
	<path class="st2" d="M704.7,402.86c4.39,3.23,9.33,5.07,14.9,4.74c2.01-0.12,4.03-0.2,6.23-0.31c-1.57-4.49-5.69-6.11-9.46-8.16
		c5,0.71,9.57,2.31,13.37,6.44c0.15-3.37-0.73-5.92-2.44-8.15c-4.41-5.72-10.38-7.84-17.38-7.03c-4.45,0.51-8.5,2.33-12.56,4.66
		c0.51,0.82,0.81,1.58,1.34,2.12C700.64,399.12,702.49,401.24,704.7,402.86z"/>
	<path class="st2" d="M776.14,318c-2.71-3.48-5.35-6.86-7.98-10.24c3.62,2.29,6.84,4.98,10.9,7.36c-0.69-6.66-2.8-12.06-7.71-16.08
		c-4.97-4.07-10.72-5.8-17.12-5.8C754.35,308.24,763.7,318.53,776.14,318z"/>
	<path class="st2" d="M1141.09,314.48c0.17,0.16,0.34,0.33,0.52,0.49c3.39-2.48,6.77-4.96,10.16-7.45
		c-2.36,3.68-5.24,6.9-7.78,10.65c14.12-0.17,22.05-11.78,21.81-25.02c-6.37,0.15-12.14,1.87-17.11,5.94
		C1143.8,303.1,1141.83,308.5,1141.09,314.48z"/>
	<path class="st2" d="M1089.49,264.15c0.19-0.02,0.38-0.03,0.57-0.05c0.75,4.1,1.5,8.19,2.25,12.29c0.1-0.02,0.27-0.01,0.37-0.09
		c0.28-0.23,0.56-0.47,0.79-0.75c4.08-4.81,4.74-10.35,3.15-16.2c-1.59-5.88-5.78-9.8-10.61-13.14c-0.45-0.31-0.98-0.51-1.47-0.76
		c-5.77,10.61-4.99,21.26,3.48,30.53C1090.01,272.2,1089.11,268.08,1089.49,264.15z"/>
	<path class="st2" d="M827.6,276.68c0.15-0.07,0.3-0.14,0.45-0.21c0.42-4.09,0.67-8.21,2.47-12.02c0.16,1.9,0.03,3.79,0.2,5.66
		c0.18,1.93,0.64,3.83,1.07,6.2c9.24-10.17,9.21-21.21,3.67-30.91c-3.36,1.86-6.19,4.34-8.56,7.31c-4.95,6.18-5.58,14.64-1.63,21.06
		C825.92,274.81,826.82,275.71,827.6,276.68z"/>
	<path class="st2" d="M804.36,493.19c-7.15,2.88-13.03,10.76-12.44,14.96c7.82,1.46,13.89,1.84,19.02-0.79
		c3.66-1.88,6.42-4.76,9.34-7.74c-3.86-1.29-7.36-0.2-10.9-0.04c3.32-2.18,7.08-3.14,10.9-3.99
		C817.66,492.19,810.21,490.82,804.36,493.19z"/>
	<path class="st2" d="M1100.06,499.53c5.58,8.53,16.14,11.72,28.39,8.49c-0.25-1.01-0.39-2.06-0.77-3.03
		c-1.28-3.34-3.48-6.05-6.21-8.32c-5.03-4.17-10.68-5.81-17.11-3.93c-1.73,0.51-3.37,1.25-4.68,2.84c4.35,0.81,8.34,2.11,11.99,4.32
		c-1.96-0.18-3.89-0.48-5.81-0.78C1103.91,498.81,1101.99,498.93,1100.06,499.53z"/>
	<path class="st2" d="M1056.54,261.8c10.1-4.56,15.16-12.63,16.14-23.96c-6.28-0.02-11.9,1.06-16.51,5.17
		c-4.22,3.76-6.35,8.47-5.65,14.22c0.21,1.69,0.49,3.4,1.88,4.73c2-5.57,4.5-9.41,7.08-10.92
		C1056.22,257.14,1055.72,259.02,1056.54,261.8z"/>
	<path class="st2" d="M863.77,261.84c0.58-4.11-1.23-7.5-3.1-10.96c3.4,2.97,5.77,6.62,6.97,11.13c0.3-0.27,0.48-0.38,0.59-0.54
		c0.2-0.3,0.38-0.62,0.51-0.96c1.18-3.01,1.34-6.09,0.46-9.19c-1.63-5.74-5.45-9.52-10.88-11.71c-3.38-1.36-6.93-1.91-10.57-1.71
		C846.85,247.07,854.78,258.82,863.77,261.84z"/>
	<path class="st2" d="M1076.51,516.5c-0.38-6.38-4.96-13.51-12.13-15.87c-5.16-1.7-10.11-1.29-14.89,2.38
		c4.41,0.83,8.21,2.14,11.69,4.35c-3.64-0.5-7.21-1.8-10.93-0.51C1054.48,514.24,1066.01,518.49,1076.51,516.5z"/>
	<path class="st2" d="M853.58,501.53c-5.81,3-10.33,9.99-9.64,14.93c9.5,2.38,20.53-1.68,26.07-9.61
		c-3.83-1.31-7.54,0.09-11.27,0.67c-0.05-0.18-0.1-0.37-0.15-0.55c3.84-1.41,7.67-2.81,11.46-4.2
		C866.72,499.34,859.29,498.58,853.58,501.53z"/>
	<path class="st2" d="M784.48,475.5c-4.12-2.83-7.5-6.45-12.49-7.31c-4.84-0.84-9.62-1.05-14.37,1.32c1.64,3.09,3.21,5.95,5.42,8.39
		c2.95,3.25,6.55,5.33,10.97,5.7c4.25,0.36,8.05-0.69,11.39-4.38c-4.17-0.1-7.74-0.67-10.96-2.59c1.68-0.04,3.34,0.11,4.99,0.17
		C781.17,476.87,782.82,476.52,784.48,475.5z"/>
	<path class="st2" d="M1134.74,479.14c0.4,0.54,0.5,0.73,0.65,0.87c4.67,4.55,12.81,4.85,18.54,0.72c3.97-2.86,6.31-6.92,8.49-11.14
		c-8.18-3.92-18.72-2.26-26.39,6.14c3.52,1.64,7.12,1.06,10.75,0.53C1143.1,478.25,1139.24,479.37,1134.74,479.14z"/>
	<path class="st2" d="M871.56,392.63c5.11-8.85,2.83-17.24-1.09-25.75c-0.68,0.32-1.36,0.55-1.94,0.93
		c-3.61,2.34-6.14,5.53-7.4,9.67c-1.94,6.4,0.09,13.1,5.05,16.61c0.76,0.53,1.66,0.85,2.8,1.41c-1.82-5.4-2.2-9.33-1.32-12.56
		C868.29,386.53,868.49,390.26,871.56,392.63z"/>
	<path class="st2" d="M1059.67,382.75c0.13-7.01-4.42-14.13-10.12-15.68c-3.91,8.36-5.99,16.77-0.94,25.65
		c2.72-2.42,3.16-5.68,3.83-9.19c1,2.82,0.9,3.76-1.11,11.69C1055.92,394.1,1059.55,388.66,1059.67,382.75z"/>
	<path class="st2" d="M912.42,322.07c6.06-8.61,4.1-16.88,0.23-25.2c-3.15,1.11-6.55,4.33-8.49,7.87
		c-3.27,5.99-2.63,13.2,1.65,17.95c1.2,1.33,2.57,2.45,4.69,2.24c-2.28-3.66-2.72-8.36-1.16-12.19
		C909.62,316.21,909.4,319.75,912.42,322.07z"/>
	<path class="st2" d="M1013.43,323.53c1.75-1.61,2.98-3.55,3.74-5.81c2.17-6.48-0.05-13.83-5.68-18.45
		c-1.15-0.94-2.45-1.71-3.89-2.7c-2.12,4.34-3.39,8.52-3.81,12.98c-0.43,4.65,1.54,8.58,3.72,12.57c3.18-2.05,2.74-5.57,3.34-8.83
		c1.35,2.95,0.95,7.34-0.92,11.44C1011.46,324.83,1012.32,324.55,1013.43,323.53z"/>
	<path class="st2" d="M1209.85,432.31c-8.74,4.16-13.65,18.65-8.38,25.75c1.61-3.32,3.15-6.48,4.68-9.63
		c0.09,0.02,0.18,0.04,0.27,0.06c-0.66,3.54-1.32,7.08-2.02,10.85C1214.73,454.93,1216.53,441.05,1209.85,432.31z"/>
	<path class="st2" d="M1155.7,427.1c8.74-4.04,14.87-13.63,13.93-21.96c-6.47,0.01-12.2,1.73-16.2,7.19
		c-3.23,4.41-3.96,9.23-1.65,14.65c0.91-1.73,1.61-3.24,2.48-4.64c0.91-1.46,1.98-2.82,2.98-4.22c0.17,0.11,0.34,0.22,0.52,0.33
		C1156.78,421.25,1155,423.87,1155.7,427.1z"/>
	<path class="st2" d="M718.56,457.89c4.98-9.93,0.42-20.85-8.5-25.53c-7.74,11.73-2.46,24.03,5.63,26.87
		c-0.69-3.68-1.37-7.36-2.06-11.04c0.07-0.01,0.14-0.02,0.21-0.03C715.41,451.4,716.99,454.64,718.56,457.89z"/>
	<path class="st2" d="M768.8,425.75c0.19-0.47,0.35-0.95,0.48-1.44c1.04-4.07,0.14-7.84-2.09-11.25c-3.88-5.95-9.8-7.81-16.66-7.95
		c-0.98,8.51,6.41,19.82,14.15,21.91c0.08-3.4-1.39-6.37-2.61-9.4c2.69,2.58,4.62,5.62,6.06,9.27
		C768.46,426.34,768.68,426.06,768.8,425.75z"/>
	<path class="st2" d="M1051.7,230.17c10.05,0.57,20.57-8.12,20.59-16.86c-13.04-2.93-23.4,4.38-23.29,14.5
		c2.89-1.83,5.48-4.05,8.72-5.18C1055.73,225.15,1053.03,227.06,1051.7,230.17z"/>
	<path class="st2" d="M868.44,230.03c-1.5-2.89-3.84-5.06-6.24-7.19c0.15-0.16,0.31-0.33,0.46-0.49c2.79,1.77,5.59,3.54,8.67,5.49
		c-0.09-3.13-1-5.67-2.63-7.94c-4.68-6.53-11.81-8.14-20.77-6.65C847,221.4,859.38,231.61,868.44,230.03z"/>
	<path class="st2" d="M960.47,207.5c1.05,3.85,0.71,7.68,1.95,11.36c8.19-8.52,5.39-20.78-1.94-27.14
		c-8.15,7.72-9.25,20.02-1.51,27.17C959.47,215.06,959.95,211.43,960.47,207.5z"/>
	<path class="st2" d="M755.84,507.88c-2.8-1.7-5.73-0.78-8.65-0.51c2.92-2.21,6.19-2.99,10.36-2.46c-0.73-0.83-1.05-1.31-1.48-1.66
		c-3.91-3.22-8.27-3.35-12.72-1.5c-6.59,2.75-9.09,8.53-10.81,14.87c2.21,0.85,3.87,0.99,6.13,0.8
		C745.82,516.85,751.32,513.34,755.84,507.88z"/>
	<path class="st2" d="M1170.83,500.63c-3.15,0.06-5.85,1.31-8.3,4.18c4.36-0.34,7.94,0.46,11.27,2.9c-7.47-0.96-7.47-0.96-9.43,0.26
		c5.99,7.19,13.48,10.65,23.22,8.96c-0.8-3.57-1.98-6.76-3.97-9.57C1180.52,502.98,1176.27,500.53,1170.83,500.63z"/>
	<path class="st2" d="M1032.19,236.39c0.41,0.3,0.94,0.45,1.85,0.87c-0.59-3.51-1.1-6.56-1.6-9.61c0.12-0.04,0.24-0.08,0.36-0.12
		c1.46,2.94,2.91,5.88,4.45,8.98c5.82-12.09-2.82-23.01-11.37-24.66c-1.08,3.34-1.3,6.79-1.3,10.29
		C1024.58,228.27,1027.36,232.88,1032.19,236.39z"/>
	<path class="st2" d="M887.65,226.77c0.08,0.03,0.16,0.07,0.23,0.1c-0.6,3.33-1.2,6.66-1.8,9.99c0.2,0.11,0.39,0.21,0.59,0.32
		c4.09-2.37,6.96-5.78,8.26-10.4c1.41-5,0.5-9.94-0.59-14.85c-4.57,0.42-10.03,4.96-12.18,10.29c-1.9,4.73-1.57,9.42,0.66,14.45
		C884.57,233.09,886.11,229.93,887.65,226.77z"/>
	<path class="st2" d="M782.06,277.01c-3.44-1-6.9-2.01-10.71-3.12c3.82-0.71,7.36,0.95,11.16-0.45c-1.58-1.4-2.86-2.68-4.29-3.76
		c-2.07-1.56-4.43-2.39-7.08-2.52c-6.56-0.34-11.01,3.37-15.28,7.57C761.5,281.65,777.56,282.38,782.06,277.01z"/>
	<path class="st2" d="M1138.04,273.81c3.53,0,6.9,0,10.27,0c0.01,0.06,0.02,0.13,0.03,0.19c-3.45,1.01-6.9,2.03-10.34,3.04
		c4.93,5.32,20.33,4.59,26.26-2.22C1153.95,263.45,1142.89,266.09,1138.04,273.81z"/>
	<path class="st2" d="M1139.75,357.34c0.22,0,0.44-0.01,0.66-0.01c0.49,3.19,0.98,6.38,1.5,9.81c2.82-2.45,4.1-5.53,4.38-9.04
		c0.59-7.6-4.13-12.44-8.86-17.32c-6.76,5.91-6.3,17.47,0.88,25.53C1139.77,363.49,1139.74,360.41,1139.75,357.34z"/>
	<path class="st2" d="M782.01,366.18c8.61-9.75,5.76-21.04,0.52-25.6c-2.21,2.78-4.54,5.32-6.4,8.16c-2.42,3.7-2.99,7.89-1.81,12.18
		c0.66,2.38,1.78,4.57,4.07,6.28c0.22-3.85,0.57-7.42,2.08-11.28C780.37,362.75,780.63,364.39,782.01,366.18z"/>
	<path class="st2" d="M1120.26,347.08c-10.95-1.22-20.58,9.01-17.77,18.88c2.25-2.4,4.05-5.14,6.71-7.03
		c-1.32,2.84-3.14,5.41-3.68,8.67C1114.82,364.96,1121.31,355.88,1120.26,347.08z"/>
	<path class="st2" d="M799.75,347.04c0.53,11.24,5.6,17.96,14.88,20.52c-0.58-3.35-2.59-6.04-3.72-9.17
		c2.24,2.51,4.48,5.01,6.81,7.62C820.01,356.4,812.25,346.57,799.75,347.04z"/>
	<path class="st2" d="M940.52,436.93c3.61-3.2,4.22-10.2,0.63-15.12c-3.55-4.86-10.55-7.17-14.92-4.87
		c2.17,7.32,4.3,14.66,10.93,19.56c1.35-2.9,0.32-5.79,0.13-8.73c0.83,1.39,1.53,2.82,2.02,4.31
		C939.82,433.63,940.12,435.26,940.52,436.93z"/>
	<path class="st2" d="M982.93,436.56c6.69-5.04,8.84-12.37,10.95-19.72c-4.14-2.07-12.16-0.21-15.7,6.22
		c-2.67,4.86-2.02,11.26,1.56,13.74c0.45-3.38,1.32-6.57,3.32-9.33C982.57,430.52,981.81,433.52,982.93,436.56z"/>
	<path class="st2" d="M886.55,531.76c-3.1-0.27-5.85,0.94-8.65,1.87c-0.07-0.16-0.14-0.33-0.21-0.49c2.76-1.54,5.53-3.08,8.42-4.7
		c-2.41-1.44-5.14-1.91-7.81-1.39c-7.16,1.41-12.31,7.69-12.85,15.67C873.95,544.1,882.7,540.18,886.55,531.76z"/>
	<path class="st2" d="M1033.37,531.56c4.64,9.2,13.36,12.53,21.37,11.07c-0.42-3.2-1.33-6.2-3.12-8.93
		c-2.99-4.54-7.2-6.87-12.64-6.81c-1.77,0.02-3.5,0.43-5.16,1.7c3.17,1.41,6.13,2.67,8.49,4.94c-1.49-0.35-2.88-0.94-4.33-1.29
		C1036.54,531.9,1035.06,531.8,1033.37,531.56z"/>
	<path class="st2" d="M892.64,542.85c7.81,3.79,21.91,0.52,23.07-5.53c-2.72,0-5.39,0-8.06,0c-0.01-0.17-0.03-0.35-0.04-0.52
		c2.81-0.78,5.62-1.55,8.55-2.36C908.73,528.09,896.72,531.47,892.64,542.85z"/>
	<path class="st2" d="M1004.06,537.81c6.24,7.31,15.63,8.21,23.27,5.08c-1.25-5.05-6.21-9.98-11.2-11.19
		c-4.44-1.08-8.42-0.27-12.2,2.7c3.44,0.99,6.58,1.9,9.73,2.81C1010.43,537.38,1007.31,536.93,1004.06,537.81z"/>
	<path class="st2" d="M1134.17,411.44c4.74-10.13-1.22-19.67-9-22.71c-4.77,9.65-2.05,19.76,6.23,23.55
		c-0.58-3.14-1.14-6.18-1.7-9.22c0.1-0.03,0.19-0.06,0.29-0.09C1131.31,405.67,1132.65,408.36,1134.17,411.44z"/>
	<path class="st2" d="M794.9,388.68c-8.39,3.61-13.58,13.25-8.93,22.58c1.47-2.9,2.83-5.59,4.19-8.29c0.08,0.02,0.16,0.04,0.25,0.05
		c-0.55,3.04-1.09,6.07-1.65,9.19C796.89,408.63,799.73,398.36,794.9,388.68z"/>
	<path class="st2" d="M756.88,450.55c0.04-4.37-3.28-8.57-7.9-10.6c-5.09-2.24-12.45-0.47-14.8,2.46
		c7.25,9.04,12.39,10.8,20.44,10.44c-1.58-2.67-3.91-4.5-6.31-6.28c0.09-0.16,0.17-0.32,0.26-0.48
		C751.33,447.57,754.09,449.05,756.88,450.55z"/>
	<path class="st2" d="M1165.6,452.88c9.14,0.79,15.24-3.95,20.49-10.64c-5.22-3.67-10.56-4.48-16.19-1.66
		c-4.05,2.03-6.25,5.41-6.96,10.3c2.9-1.64,5.16-3.63,8.16-4.05C1169.14,448.79,1166.78,450.36,1165.6,452.88z"/>
	<path class="st2" d="M703.37,481.97c-2.18-1.11-4.38-2.17-6.58-3.25c0-0.1,0.01-0.2,0.01-0.29c3.07,0.55,6.13,1.11,9.22,1.67
		c-1.7-4.8-7.39-7.98-12.64-7.52c-5.09,0.45-9.6,3.76-10.7,8.24c3.83,1.19,7.64,2.54,11.55,3.55c3.48,0.9,6.8-0.29,10.41-1.29
		C704.02,482.52,703.74,482.15,703.37,481.97z"/>
	<path class="st2" d="M1226.23,472.54c-4.42-0.18-10.48,2.39-12.04,7.54c3.02-0.55,6.04-1.11,9.05-1.66
		c0.05,0.17,0.09,0.34,0.14,0.51c-2.71,1.01-5.52,1.86-7.86,4.14c3.28,0.98,6.23,1.8,9.31,1.52c4.48-0.4,8.35-2.7,12.55-3.92
		C1236.25,476.13,1231.42,472.76,1226.23,472.54z"/>
	<path class="st2" d="M1105.83,249.88c0.91-2.93,0.64-5.87,0.22-8.82c0.16-0.03,0.31-0.05,0.47-0.08c0.82,3.05,1.65,6.1,2.5,9.24
		c5.96-6.56,3.42-18.22-7.5-22.4C1097.77,235,1099.13,244.65,1105.83,249.88z"/>
	<path class="st2" d="M813.87,241.48c-0.39,2.85-0.42,5.63,0.47,8.43c7.68-6.07,7.35-17.24,4.06-22.27
		c-4.8,2.48-8.72,5.71-10.06,11.27c-1.02,4.22-0.08,7.97,2.88,11.64C811.9,247.18,812.33,244.17,813.87,241.48z"/>
	<path class="st2" d="M916.6,214.88c-0.94,2.72-2.69,4.94-3.7,7.76c12.27-2.12,14.8-15.52,9.64-21.33
		c-2.83,2.37-5.75,4.46-8.22,6.99c-3.19,3.27-4.33,7.42-3.88,12.54C912.72,218.64,914.66,216.76,916.6,214.88z"/>
	<path class="st2" d="M1166.08,331.33c2.5-1.8,3.32-4.48,4.68-6.81c-0.02,3.08-1.04,5.89-2.34,8.7c2.2-0.33,3.86-1.34,5.46-3.15
		c4.75-5.39,4.25-13.51-0.59-19.81C1167.77,313.58,1163.19,320.95,1166.08,331.33z"/>
	<path class="st2" d="M1007.23,222.29c-1.35-2.43-2.69-4.85-4.04-7.28c0.09-0.07,0.19-0.14,0.28-0.22c1.97,1.91,3.93,3.82,6.21,6.02
		c0.3-4.41-0.51-7.94-2.72-11.12c-2.48-3.56-6.22-5.61-9.62-8.35c-2.96,4.28-2.95,8.62-1.12,13.02
		C998.19,219.13,1001.97,221.61,1007.23,222.29z"/>
	<path class="st2" d="M751.4,333.24c-0.84-2.95-1.65-5.77-2.45-8.6c0.15-0.05,0.3-0.11,0.46-0.16c1.37,2.31,2.04,5.11,4.69,6.8
		c2.89-11.18-2.43-18.16-7.46-21.11c-1.69,2.49-2.98,5.2-3.44,8.16c-0.62,3.93-0.13,7.72,2.44,10.98
		C747.16,331.25,748.96,332.81,751.4,333.24z"/>
	<path class="st2" d="M996.49,275.4c4.66-2.21,7.36-6.8,6.34-10.48c-2.74,0-5.42,0.1-8.08-0.02c-4.5-0.2-8.35,1.47-12.02,3.77
		c-0.01,0.19-0.02,0.39-0.03,0.58c1.38,0.36,2.74,0.79,4.14,1.05c1.39,0.26,2.8,0.35,4.21,0.51c0.01,0.13,0.02,0.26,0.03,0.39
		c-2.97,0.31-5.93,0.63-8.96,0.95C985.13,276.43,991.42,277.81,996.49,275.4z"/>
	<path class="st2" d="M992.42,378.07c8.32,0.46,15.68-4.55,18.1-11.46c-5.28-2.14-10.51-2.96-15.6,0.37c-3.17,2.08-5.11,5-5.29,9.27
		c2.58-1.47,4.5-3.44,7.34-4.02c-1.73,1.89-3.31,3.62-4.9,5.36C992.18,377.75,992.3,377.91,992.42,378.07z"/>
	<path class="st2" d="M930.49,376.1c-0.3-4.66-2.58-7.72-6.35-9.73c-4.93-2.63-9.77-1.74-14.63,0.29
		c2.39,6.99,11.02,12.25,18.41,11.37c-1.06-2.66-3.36-4.21-5.42-5.97c0.1-0.14,0.2-0.29,0.3-0.43
		C925.27,373.07,927.74,374.5,930.49,376.1z"/>
	<path class="st2" d="M917.51,264.69c-0.11,0-0.23,0.15-0.35,0.23c-0.7,4.74,3.31,9.27,6.77,10.65c5.21,2.07,10.7,0.87,14.15-3.45
		c-3.19-0.31-6.2-0.59-9.21-0.88c0.01-0.16,0.01-0.33,0.02-0.49c2.88-0.29,5.86-0.19,8.78-1.91c-3.3-1.93-6.35-3.58-9.93-3.79
		C924.34,264.85,920.92,264.79,917.51,264.69z"/>
	<path class="st2" d="M847.41,352.13c0.09,1.17,0.55,2.31,0.92,3.75c5.85-5.79,7.82-12.18,6.13-19.75
		c-0.44-0.06-0.83-0.24-1.12-0.14c-3.33,1.19-6.43,2.78-8.68,5.62c-3.04,3.84-3.53,9.37-1.19,13.1c0.54,0.86,1.09,1.8,2.41,2.09
		c-0.23-3.05,0-5.82,1.67-8.28C847.59,349.74,847.32,350.95,847.41,352.13z"/>
	<path class="st2" d="M1078.03,350.59c0.89-7.22-5.27-13.25-12.3-14.63c-1.64,7.7,0.11,14.18,5.87,19.69
		c1.5-2.26,1.18-4.7,1.07-7.17c0.66,1.34,1.24,2.69,1.45,4.08c0.21,1.37,0.05,2.8,0.05,4.55
		C1076.76,355.3,1077.72,353.14,1078.03,350.59z"/>
	<path class="st2" d="M1210.96,415.29c2.94,0.47,5.69,0.91,8.44,1.35c0.01,0.08,0.02,0.16,0.03,0.24c-2.8,0.36-5.6,0.72-8.62,1.11
		c7.68,8.25,20.11,3.36,22.09-2.58C1224.34,409.9,1216.82,409.66,1210.96,415.29z"/>
	<path class="st2" d="M709.14,417.95c-3.1-0.39-5.97-0.75-8.83-1.11c0.01-0.05,0.02-0.1,0.03-0.16c2.9-0.45,5.8-0.9,8.69-1.35
		c-2.37-2.45-5.08-3.76-8.27-4.11c-5.18-0.57-9.4,1.8-13.65,4.18C690.59,423.24,703.78,424.83,709.14,417.95z"/>
	<path class="st2" d="M935.74,302.98c3.52,2.54,8.89,1.77,12.53-1.41c3.69-3.22,5.66-10.08,3.17-14.12
		c-6.44,2.58-12.79,5.26-15.3,12.66c2.17,0.8,4-0.79,6.42-1.03C940.62,301.28,938.4,302.23,935.74,302.98z"/>
	<path class="st2" d="M984.05,300.21c-2.77-7.39-8.89-10.37-15.51-12.75c-2.19,4.84-0.35,10.83,3.17,14.02
		c3.68,3.34,8.7,4.06,12.81,1.54c-3.19-0.9-5.75-2.12-7.57-4.52C979.25,299.39,981.44,300.72,984.05,300.21z"/>
	<path class="st2" d="M734.67,342.34c2.39,1.86,5.06,2.85,8.43,2.26c-1.82-2.03-3.76-3.56-4.97-6.19c2.36,1.27,3.89,3.18,6.34,3.52
		c-1.3-8.76-8.51-15.57-15.41-14.43C729.17,333.1,729.77,338.52,734.67,342.34z"/>
	<path class="st2" d="M1181.66,338.66c0.1,0.11,0.19,0.22,0.29,0.33c-1.57,1.82-3.14,3.65-4.8,5.58c0.64,0.12,1.14,0.33,1.62,0.29
		c3.57-0.29,6.57-1.73,8.81-4.59c2.95-3.77,3.42-8.19,3.43-12.91c-7.41-0.51-15.08,6.95-15.24,14.92
		C1177.85,341,1179.75,339.83,1181.66,338.66z"/>
	<path class="st2" d="M809.01,525.4c-2.55,3.89-2.71,10.27-0.02,13.42c6.04-3.73,11.75-7.7,12.27-15.91c-2.59,0.48-4.2,2.3-6.1,3.59
		c-0.11-0.13-0.21-0.25-0.32-0.38c1.74-2,3.48-4,5.21-6C815.98,519.35,811.56,521.52,809.01,525.4z"/>
	<path class="st2" d="M1111.24,538.66c2.57-3.61,2.45-9.08-0.2-13.35c-2.28-3.67-7.67-6.3-11.04-5.13c1.82,2.03,3.94,3.76,5.29,6.66
		c-2.27-1.6-3.77-3.51-6.42-3.9C1099.13,529.28,1104.2,535.63,1111.24,538.66z"/>
	<path class="st2" d="M859.56,432.29c0.04-0.2,0.08-0.39,0.12-0.59c-2.67-2.41-5.73-4.3-9.36-4.55c-3.44-0.23-6.93,0.16-10.37,0.28
		c-0.25,4.15,2.76,8.09,7.42,9.99c4.13,1.69,9.45,0.62,12.34-2.6c-2.71-0.59-5.35-1.16-7.98-1.73c0.02-0.1,0.04-0.19,0.06-0.29
		C854.39,432.64,856.98,432.46,859.56,432.29z"/>
	<path class="st2" d="M1073.09,437.3c4.38-1.88,7.65-6.25,7.1-9.66c-7.09-0.93-14.14-1.72-20.03,4.6c2.96,0.21,5.54,0.39,8.12,0.58
		c0.03,0.11,0.05,0.22,0.08,0.33c-2.63,0.55-5.26,1.09-7.94,1.65C1062.46,437.78,1068.47,439.28,1073.09,437.3z"/>
	<path class="st2" d="M875.49,454.6c5.36,4.49,14.12,5.52,20.36,0.73c-2.17-1.55-4.84-1.51-7.17-2.58c2.66,0,5.33,0,8.31,0
		C891.51,445.09,880.56,446.65,875.49,454.6z"/>
	<path class="st2" d="M1044.74,454.53c-6.14-8.33-17.75-9.29-21.41-1.65c2.77,0,5.43,0,8.09,0c-2.41,0.85-4.97,0.99-7.19,2.5
		C1030.77,460.03,1039.01,459.14,1044.74,454.53z"/>
	<path class="st2" d="M1155.83,384.02c-2.29,1.99-4.61,6.59-3.35,9.54c2.08-1.61,3.67-3.83,6.25-4.99c-1.48,2.19-2.84,4.22-4.2,6.25
		c8.14-0.37,13.61-6.48,15.21-13.74C1164.63,379.97,1159.94,380.45,1155.83,384.02z"/>
	<path class="st2" d="M750.41,381.38c2.03,8.03,7.51,12.99,15.01,13.84c-0.64-2.62-2.67-4.36-3.74-6.72
		c1.99,1.65,3.99,3.29,6.16,5.09C769.04,384.8,759.19,378.07,750.41,381.38z"/>
	<path class="st2" d="M808.24,387.86c1.66-7.33-1.86-14.99-7.83-17.84c-0.16,0.22-0.36,0.44-0.49,0.69
		c-0.31,0.57-0.64,1.14-0.89,1.75c-1.9,4.54-2.26,9.07,0.66,13.3c1.72,2.5,3.98,4.43,7.41,4.35c-2.6-3.76-3.08-4.85-2.91-6.56
		C805.41,384.85,806.68,386.2,808.24,387.86z"/>
	<path class="st2" d="M1121.5,383.78c2.12-4.89,0.94-9.45-1.82-13.79c-6.17,3.76-9.67,10.47-7.93,17.43
		c2.42-0.73,3.21-3.02,4.55-4.76c0.17,0.12,0.35,0.24,0.52,0.35c-1.21,2.37-2.41,4.73-3.67,7.22
		C1117.37,389.87,1119.95,387.35,1121.5,383.78z"/>
	<path class="st2" d="M979.36,342.68c-8.62,2.2-13.29,8.21-12.26,16.21c1.79-1.84,3.43-3.54,5.08-5.24
		c0.09,0.07,0.17,0.15,0.26,0.22c-1.05,2.05-2.1,4.11-3.28,6.44C978.68,358.77,981.72,348.36,979.36,342.68z"/>
	<path class="st2" d="M952.97,358.92c0.98-8.31-5.52-16.21-12.6-15.97c-1.94,10.46,4.54,16.71,10.49,17.18
		c-1.1-2.18-2.17-4.28-3.23-6.38c0.07-0.03,0.13-0.06,0.2-0.09C949.44,355.3,951.04,356.95,952.97,358.92z"/>
	<path class="st2" d="M1170.31,365.18c3.38,6.35,8.82,8.93,15.15,10.13c1.59-3.96-0.35-9.39-4.21-12.27
		c-3-2.24-8.13-3.17-11.32-0.19c1.2,0.39,2.4,0.69,3.51,1.17c1.02,0.44,1.95,1.08,2.92,1.64c-0.06,0.07-0.11,0.14-0.17,0.2
		C1174.23,365.64,1172.27,365.41,1170.31,365.18z"/>
	<path class="st2" d="M908.81,381.99c-2.24-3.94-5.61-5.94-9.81-6.08c-4.4-0.15-8.22,1.49-10.97,5.34c8.1,5.5,14.24,6.41,19.12,2.68
		c-2.22-0.97-4.27-1.86-6.33-2.75c0.03-0.11,0.05-0.23,0.08-0.34C903.45,381.21,906,381.58,908.81,381.99z"/>
	<path class="st2" d="M978.72,248.29c-1.38,4.35-0.08,9.67,5.58,13.42c3.64-5.31,4.71-11.24,4.55-17.68
		c-2.19,0.99-3.36,2.86-4.94,4.79c0.16-2.86,2.11-4.57,2.94-6.81C982.97,242.27,979.84,244.74,978.72,248.29z"/>
	<path class="st2" d="M750.11,362.77c-3.43-3.03-8.82-1.77-11.67,0.62c-3.63,3.04-5.37,8.41-3.72,11.79
		c6.04-0.44,13.85-5.49,15.18-10.05c-2.12,0.28-4.11,0.54-6.54,0.86c0.9-0.6,1.4-1.04,1.98-1.29
		C746.87,364.02,748.42,363.44,750.11,362.77z"/>
	<path class="st2" d="M931.3,244.16c-0.28,6.4,0.96,12.23,4.51,17.61c4.84-3.24,6.85-8.07,5.76-12.87c-0.71-3.12-4.3-7.06-8.32-6.88
		c1.1,2.49,3.14,4.56,3.33,7.92C935.08,247.42,933.9,245.19,931.3,244.16z"/>
	<path class="st2" d="M1031.94,381.38c-1.27-3.17-7-5.85-11.23-5.47c-4.04,0.36-7.14,2.3-9.32,5.96c2.88-0.35,5.46-0.67,8.05-0.99
		c-2.04,1.29-4.43,1.59-6.34,3.46C1020.38,388.2,1026.23,385.24,1031.94,381.38z"/>
	<path class="st2" d="M855.28,298.68c-4.84,0.04-8.5,2.15-10.95,6.27c-2.02,3.41-1.99,7.57-0.14,9.92c1.01-1.88,2.03-3.76,3.05-5.64
		c0.12,0.05,0.25,0.11,0.37,0.16c-0.31,1.94-0.63,3.88-0.98,6.03C852.94,312.73,856.24,305.56,855.28,298.68z"/>
	<path class="st2" d="M904.88,259c-4.37-1.67-8.48-1.06-12.19,1.62c-2.95,2.13-4.38,5.19-4.65,9.21c2.14-1.49,3.94-2.75,5.74-4.01
		c0.08,0.09,0.15,0.18,0.23,0.28c-1.24,1.64-2.48,3.29-3.94,5.23C896.85,271.48,902.52,266.68,904.88,259z"/>
	<path class="st2" d="M1076.16,315.35c1.63-4.23,1.54-8.04-1.04-11.45c-2.57-3.39-5.99-5.37-10.43-5.16
		c-0.63,7.12,2.65,14.34,8.87,16.53c-0.48-2.27-0.92-4.37-1.36-6.47c0.1-0.06,0.21-0.11,0.31-0.17
		C1073.68,310.78,1074.84,312.92,1076.16,315.35z"/>
	<path class="st2" d="M1031.89,269.69c0.08-8.13-8.59-13.89-16.77-10.6c2.77,7.86,9.52,13.38,14.76,11.95
		c-1.28-1.68-2.51-3.3-3.74-4.92c0.09-0.09,0.18-0.18,0.27-0.27C1028.18,267.09,1029.96,268.34,1031.89,269.69z"/>
	<path class="st2" d="M1195.06,501.48c1.11,0.6,2.13,1.12,3.11,1.7c0.99,0.58,1.94,1.22,2.91,1.84c-0.05,0.05-0.1,0.1-0.14,0.15
		c-2.15-0.49-4.3-0.98-6.45-1.47c1.6,3.46,3.85,6.06,7.19,7.46c2.45,1.02,5.01,1.79,7.53,2.68c1.92-3,1.13-6.98-1.89-10.23
		C1204.54,500.6,1198.92,498.95,1195.06,501.48z"/>
	<path class="st2" d="M718.95,504.93c2-1.14,4-2.29,6.26-3.58c-6.5-3.15-13.76,0.97-15.17,7.22c-0.44,1.95-0.42,3.85,0.86,5.31
		c2.32-0.85,4.41-1.68,6.53-2.4c3.84-1.3,6.44-3.92,8.14-7.77c-2.17,0.5-4.34,1-6.51,1.49
		C719.02,505.12,718.98,505.03,718.95,504.93z"/>
	<path class="st2" d="M1009.03,473.46c7.08,5.15,14.62,3.71,18.99-0.57c-6.59-7.13-16.75-8.07-19.16-1.85
		c2.4,0.34,4.93-0.35,7.37,0.9c-1.31,0.14-2.49,0.17-3.62,0.41C1011.45,472.58,1010.35,473.03,1009.03,473.46z"/>
	<path class="st2" d="M911.13,473.28c-2.44-0.54-4.61-1.03-6.85-1.53c2.23-1.14,4.78-0.23,7.16-0.85
		c-3.79-5.46-12.72-5.67-19.14,1.98C896.73,477.84,904.97,478.09,911.13,473.28z"/>
	<path class="st2" d="M713.92,425.89c7.79,4.96,15.07,4.47,19.34-1.15c-2.72,0-5.08,0-7.45,0c-0.01-0.11-0.03-0.22-0.04-0.33
		c2.23-0.6,4.45-1.19,6.95-1.86C726.38,417.54,716.63,419.47,713.92,425.89z"/>
	<path class="st2" d="M1186.95,424.87c3.69,5.19,11.77,6.05,19.36,0.9c-4.12-6.63-12.98-8.23-18.85-3.25
		c2.32,0.65,4.45,1.24,6.58,1.84c-0.03,0.17-0.06,0.34-0.09,0.51C1191.67,424.87,1189.4,424.87,1186.95,424.87z"/>
	<path class="st2" d="M691.55,444.06c1.5,1.04,3.15,1.55,5.22,1.13c-1.83-1.85-3.34-3.62-3.97-6.37c1.57,1.83,2.77,3.52,4.92,4.03
		c0.48-7.52-4.15-13.65-9.05-15.15c-0.53,2.03-1.3,4.03-1.53,6.08C686.67,437.98,687.95,441.57,691.55,444.06z"/>
	<path class="st2" d="M1224.27,445.34c3.6,0.06,6.97-2.5,8.21-6.36c1.25-3.89,0.38-7.57-1.28-11.28c-4.89,1.97-9.1,7.33-8.83,15.58
		c1.61-1.23,3.01-2.31,4.58-3.51c-0.47,2.28-2.08,3.68-3.42,5.36C1223.9,445.24,1224.08,445.34,1224.27,445.34z"/>
	<path class="st2" d="M808.86,335.79c-1.39-8.32-11.35-10.83-17.38-6.92c2.61,5.97,8.65,10.01,16.12,8.91
		c-1.81-1.64-3.28-2.97-4.76-4.31c0.05-0.1,0.1-0.2,0.15-0.31C804.91,334.03,806.84,334.89,808.86,335.79z"/>
	<path class="st2" d="M1115.71,328.93c-2.65,1.66-4.34,4.45-4.21,6.77c1.86-0.86,3.72-1.72,5.58-2.58c0.06,0.12,0.11,0.24,0.17,0.36
		c-1.46,1.35-2.92,2.71-4.54,4.21c7.38,1.61,14.29-3.92,15.92-9.12C1124.26,326.71,1119.94,326.27,1115.71,328.93z"/>
	<path class="st2" d="M1047.43,320.59c2.44-2.99,3.63-8.11,0.92-11.9c-5.07,2.81-9.78,5.91-11.51,12.56
		c1.9-0.68,3.47-1.25,5.05-1.82c0.09,0.14,0.19,0.28,0.28,0.41c-1.57,1.21-3.14,2.42-4.71,3.63
		C1040.74,324.85,1044.94,323.63,1047.43,320.59z"/>
	<path class="st2" d="M677.7,443.07c0.03-0.08,0.07-0.16,0.1-0.24c2.18,0.39,4.36,0.78,6.67,1.2c-3.25-6.34-9.68-7.84-17.22-6.16
		c0.51,3.92,2.64,6.63,6.08,8.41c3.35,1.73,6.68,1.62,10.46-0.04C681.49,445.04,679.6,444.06,677.7,443.07z"/>
	<path class="st2" d="M883.28,321.07c-1.77-6.38-6.36-9.59-11.5-12.3c-2.58,3.15-1.74,9.11,1.29,12.31c2.66,2.8,6.8,3.78,9.54,2.17
		c-1.71-1.04-3.48-1.98-4.5-3.83c0.84,0.22,1.58,0.62,2.37,0.9C881.34,320.61,882.23,320.79,883.28,321.07z"/>
	<path class="st2" d="M1235.79,443.97c1.93-0.3,3.77-0.58,5.62-0.87c0.03,0.13,0.06,0.27,0.1,0.4c-1.62,0.86-3.23,1.73-5.18,2.77
		c4.41,1.89,8.23,1.68,11.79-0.81c2.65-1.85,4.5-4.25,4.62-7.67C1245.11,436.37,1238.58,437.71,1235.79,443.97z"/>
	<path class="st2" d="M1199.7,359.04c2.56,2.52,6.74,3.05,10.08,1.41c3.83-1.88,6.03-5.95,5.5-10.51
		c-5.74,0.96-11.43,1.69-15.42,6.38c0.03,0.19,0.06,0.38,0.09,0.56c1.93,0,3.86,0,5.79,0c0,0.15,0,0.3,0,0.45
		C1203.75,357.9,1201.78,358.46,1199.7,359.04z"/>
	<path class="st2" d="M710.53,360.57c3.46,1.51,7.56,0.94,9.77-1.54c-2-0.58-3.99-1.16-5.98-1.74c0.03-0.18,0.06-0.36,0.09-0.53
		c1.98,0,3.95,0,6.27,0c-4.34-5.06-9.99-5.9-15.79-6.75C704.17,354.14,706.65,358.87,710.53,360.57z"/>
	<path class="st2" d="M937.13,227.13c2.11-0.93,4.01-1.77,5.91-2.61c0.08,0.15,0.17,0.31,0.25,0.46c-1.59,1.07-3.29,2.03-4.14,3.9
		c6.47,1.03,11.42-1.47,15.68-5.89c-3.08-3.59-8.57-4.37-11.94-2.91C939.84,221.4,937.69,223.55,937.13,227.13z"/>
	<path class="st2" d="M981.27,228.59c-1.57-1.37-2.98-2.59-4.39-3.81c0.05-0.1,0.1-0.2,0.15-0.3c1.9,0.83,3.81,1.67,5.99,2.62
		c-0.75-3.89-3.06-6.13-6.47-7.18c-4.27-1.32-7.97-0.01-11.27,2.84C969.85,227.89,975.53,230.07,981.27,228.59z"/>
	<path class="st2" d="M1110.23,463.94c1.46-3.39,1.09-8.53-1.65-11c-4.63,3.6-8.15,7.81-7.89,14.57c1.58-1.25,2.97-2.35,4.47-3.52
		c-0.42,2.13-2.15,3.42-3.11,5.3C1105.42,469.66,1108.96,466.89,1110.23,463.94z"/>
	<path class="st2" d="M811.52,452.93c-2.7,2.41-3.37,8.31-1.09,12.07c1.76,2.9,4.93,4.65,7.66,4.03c-1.22-1.56-2.66-2.97-3.11-5.05
		c1.48,1.18,2.85,2.27,4.47,3.57C819.6,460.74,816.17,456.5,811.52,452.93z"/>
	<path class="st2" d="M831.79,555.7c0.09-1.94,0.12-3.6,0.26-5.25c0.31-3.75-1.25-6.72-3.89-9.61c-0.27,1.92-0.5,3.54-0.73,5.17
		c-0.08-0.01-0.15-0.01-0.23-0.02c-0.4-1.62-0.79-3.25-1.26-5.17c-2.64,3.36-2.99,6.67-1.3,10.08
		C826.01,553.68,828.11,555.69,831.79,555.7z"/>
	<path class="st2" d="M1095.92,550.01c1.23-3.25,0.37-7.23-1.9-8.81c-0.4,1.72-0.81,3.44-1.22,5.16c-0.06-0.01-0.13-0.02-0.19-0.04
		c-0.19-1.7-0.39-3.4-0.61-5.36c-4.72,4.17-4,9.33-3.73,14.56C1091.55,555.84,1094.56,553.61,1095.92,550.01z"/>
	<path class="st0" d="M1232.32,449.34c-4.49-2.24-8.7-1.73-12.37,1.55c-2.15,1.93-4.14,4.15-5.76,6.53
		c-3.23,4.76-6.11,9.76-9.24,14.6c-2.2,3.41-4.52,6.75-8.25,9.25c0.12-0.57,0.15-0.85,0.24-1.1c2.33-6.41,0.91-12.24-3.02-17.51
		c-4.43-5.94-11.32-6.88-16.62-2.49c-1.42,1.18-1.71,2.61-0.82,4.03c0.89,1.42,2.32,1.82,4,1.13c0.81-0.33,1.59-0.74,2.43-0.97
		c3.6-0.99,6.75,0.47,8.28,3.89c0.97,2.17,1.33,4.45,0.96,6.84c-0.96,6.26-4.49,10.66-9.95,13.56c-6.02,3.2-12.55,3.49-19.17,2.95
		c-0.18-0.02-0.35-0.21-0.65-0.39c3.46-2.53,6.22-5.42,6.09-9.99c-1.77-2.31-3.26-2.3-4.75,0.02c-0.31,0.49-0.61,0.99-0.87,1.52
		c-1.27,2.59-3.38,4.22-6.09,4.95c-1.95,0.53-3.99,0.9-6,1c-5.16,0.25-10.1-1.13-15.05-2.37c-5.65-1.42-11.23-3.13-17.09-3.49
		c-1.47-0.09-2.95-0.01-4.42-0.01c0.53-0.75,1.09-1.04,1.65-1.34c6.22-3.32,11.88-7.38,16.78-12.49c0.93-0.97,2.11-1.75,3.29-2.43
		c4.42-2.55,8.99-4.84,13.29-7.57c8.44-5.36,14.86-12.39,17.34-22.42c0.12-0.47,0.39-0.97,0.74-1.29c1.83-1.6,3.87-2.87,6.26-3.44
		c1.78-0.42,3.43-0.25,4.88,1.1c1.19,1.1,2.62,1.53,4.28,0.87c0.93-1.86,0.24-3.46-0.96-4.8c-1.91-2.15-4.37-3.1-7.27-2.65
		c-1.29,0.2-2.56,0.55-4.06,0.87c2.69-4.99,6.54-8.09,11.76-9.47c4.45-1.18,8.97-0.95,13.48-0.58c1.55,0.13,3.05,0.16,4.47-0.67
		c0.73-1.35,0.35-2.32-0.87-3.16c-4.39-3-9.23-3.66-14.22-2.3c-11,3.01-18.84,9.46-22.08,20.84c-2.15,7.55-5.78,14.33-11.69,19.68
		c-2.8,2.54-5.88,4.67-9.66,6.05c0.11-0.41,0.12-0.62,0.22-0.78c3.17-5.32,4.61-11.13,4.99-17.25c0.27-4.29,0.5-8.59,0.83-12.88
		c0.35-4.52,1.06-8.96,2.95-13.15c1.56-3.46,3.56-6.51,7.08-8.31c0.9-0.46,1.74-1.09,2.48-1.78c1.12-1.04,1.79-2.29,1.22-3.86
		c-2.31-1.9-3.96-1.99-6.35-0.3c-2.68,1.88-4.58,4.47-6.35,7.16c-0.4,0.6-0.79,1.21-1.19,1.82c-0.28-5.81-0.4-11.42-0.24-17.03
		c0.11-3.83,1.07-7.54,3.46-10.65c1.84-2.4,3.84-4.6,7.4-4.15c1.16,0.15,2.02-0.73,2.31-1.94c0.32-1.34-0.16-2.74-1.41-3.07
		c-1.29-0.34-2.7-0.33-4.05-0.26c-0.94,0.05-1.87,0.45-2.91,0.72c2.86-8.54,11.37-14.96,21.62-15.35c6.69-0.26,12.4,2.21,17.29,6.66
		c3.76,3.42,5.29,10.13,3.65,14.95c-1.22,3.59-4.98,5.86-8.49,4.67c-0.15-0.24-0.33-0.55-0.53-0.85c-1.1-1.66-2.33-2.11-3.87-1.43
		c-1.53,0.68-2.03,1.96-1.5,3.84c0.71,2.53,2.35,4.17,4.88,4.83c3.77,0.99,10.19-1.21,12.41-4.46c4.14-6.07,4.95-13.02,1.18-19.58
		c-5.97-10.39-21.3-16.4-33.18-13.02c-1.85,0.53-3.63,1.31-5.69,2.06c0.41-0.82,0.71-1.45,1.03-2.07c1.44-2.75,2.32-5.67,2.51-8.76
		c0.59-9.94-7.45-19.7-17.34-20.96c-4.96-0.63-9.69,1.43-11.22,7.14c-0.54,2.01-0.69,4.13-0.96,5.85c2.27,3.55,5.98,4.51,8,2.41
		c0-0.71,0-1.42,0-2.27c-1.14-0.52-2.23-1.01-3.26-1.48c0.67-5.04,3.6-7.31,8.1-6.44c7.9,1.54,13.03,9.61,11.15,17.43
		c-1.18,4.89-3.53,9.23-6.06,13.5c-3.71,6.25-7.81,12.31-9.48,19.63c-0.21-0.22-0.33-0.31-0.4-0.43c-0.17-0.32-0.31-0.66-0.46-0.99
		c-1.49-3.23-3.44-6.1-6.38-8.18c-1.81-1.28-3.75-2.25-6.06-2.15c-0.98,0.04-1.91,0.19-2.35,1.36c0.05,1.78,1.26,2.77,2.73,3.54
		c3.94,2.06,6.53,5.29,8.13,9.36c1.46,3.7,2.16,7.57,2.23,11.53c0.08,4.23-0.1,8.46,0.02,12.69c0.2,7.07,0.62,14.14,0.79,21.21
		c0.06,2.46-0.31,4.92-0.49,7.39c-0.15,0.01-0.3,0.02-0.45,0.03c-1.54-3.74-3.61-7.16-6.39-10.08
		c-6.15-6.46-13.41-10.63-22.55-11.04c-11.54-0.52-22.4,8.95-21.7,20.95c0.51,8.66,6.83,16.06,16.83,15.43
		c1.95-0.12,3.94-0.28,5.62-1.51c2.02-1.47,2.45-3.52,2.1-5.83c-0.28-1.81-1.14-3.13-3.58-3.49c-0.98,0.79-2.19,1.77-3.63,2.94
		c-1.24,0-2.86,0.2-4.42-0.04c-6.32-0.97-9.53-6.51-7.42-12.64c2.07-6.05,8.74-10.84,15.55-10.87c9.31-0.04,15.96,4.45,20.09,12.65
		c2.64,5.24,3.13,10.88,2.19,16.63c-1.24,7.55-4.41,14.13-10.11,19.33c-4.14,3.77-8.93,6.53-14.05,8.75
		c-7.67,3.32-15.75,5.2-23.96,6.55c-1.07,0.18-2.15,0.29-3.23,0.44c3.82-2.8,6.43-6.34,8.25-10.48c1.21-2.75,2.04-5.63,1.92-8.68
		c-0.05-1.31-0.22-2.66-2.08-3.26c-0.76,0.53-1.74,1.04-2.49,1.77c-2.06,2.01-3.49,4.44-4.52,7.14
		c-2.62,6.86-7.43,11.64-14.25,14.24c-3.11,1.18-6.36,2.15-9.64,2.72c-8.39,1.47-16.84,2.58-25.24,4
		c-8.45,1.43-16.58,3.94-24.27,7.78c-8.85,4.42-16.48,10.44-23.1,17.76c-0.9,1-1.82,1.99-2.92,3.19c0-0.78-0.05-1.22,0.01-1.64
		c0.54-3.82,1.11-7.64,1.66-11.46c1.26-8.67,3.06-17.21,6.26-25.39c3.16-8.05,7.77-15.17,14.1-21.11
		c6.18-5.8,13.28-10.19,21.08-13.47c5.76-2.42,11.68-4.15,18.03-3.43c5.16,0.59,9.15,3.02,11.14,7.95c0.91,2.26,1.36,4.74,1.84,7.15
		c0.71,3.54-0.67,6.45-3.17,8.86c-2.5,2.42-5.6,3.75-9.02,4.01c-4.49,0.34-8.61-0.39-10.85-5.08c-0.3-0.63-1.03-1.06-1.45-1.48
		c-1.37,0.42-1.49,1.25-1.56,2.17c-0.31,4.38,1.51,7.5,5.8,8.92c7.44,2.48,14.43,1.6,20.42-3.76c4.31-3.86,6.63-8.77,6.04-14.6
		c-1.3-12.71-13.56-21.94-26.18-19.94c-0.53,0.08-1.07,0.07-1.61,0.1c0.33-0.53,0.74-0.8,1.17-1.05c5.97-3.55,12.32-6.29,18.69-9.01
		c8.5-3.64,17.09-7.12,25.4-11.15c9.72-4.71,17.93-11.44,24.14-20.41c1.93-2.78,3.43-5.77,3.89-9.17c0.34-2.53,0.01-4.92-1.68-6.8
		c-1.18-0.41-2.01-0.07-2.47,0.75c-0.62,1.12-1.29,2.31-1.53,3.55c-1.75,8.88-6.67,15.72-13.49,21.37
		c-5.96,4.94-12.76,8.42-19.83,11.41c-1.83,0.78-3.7,1.47-5.56,2.2c0.37-0.82,0.89-1.33,1.42-1.81
		c12.59-11.3,20.97-25.23,25.85-41.36c2.57-8.5,3.06-17.33,4.35-26.04c0.62-4.19,1.23-8.37,3.22-12.18
		c0.91-1.75,2.08-2.89,4.36-2.33c1.48,0.36,2.94,0.04,3.55-1.72c-0.49-3.89-2.6-5.23-6.34-4.03c-3.29,1.06-5.65,3.2-7.31,6.36
		c-0.83-3.74-1.64-7.42-2.02-11.15c-0.75-7.36-0.71-14.72,1.47-21.9c2.89-9.52,8.24-16.98,17.69-20.98
		c8.17-3.46,17.32-1.87,22.77,4.23c4.15,4.66,6.12,10.35,4.56,16.4c-2.04,7.9-7.58,12.87-15.53,14.69
		c-7.73,1.77-14.57-4.09-14.24-11.83c0.11-2.7,1.28-4.09,3.96-4.72c0.71-0.17,1.42-0.32,2.07-0.46c1.94-2.08,1.93-3.02,0-5
		c-5.09-1.03-10.27,1.27-11.47,6.79c-1.56,7.22,2.09,16.94,10.78,19.69c3.71,1.17,7.44,1.36,11.19,0.22
		c8.26-2.51,13.7-8.1,16.92-15.91c2.35-5.7,2.66-11.57-0.2-17.17c-4.63-9.06-14.37-14.1-24.61-13.74
		c-4.35,0.15-8.49,1.29-12.27,3.55c-0.14,0.08-0.36,0.03-0.7,0.05c0.37-0.79,0.64-1.45,0.97-2.09c1.67-3.27,2.76-6.73,3.31-10.36
		c0.85-5.64-1.42-10.47-6-12.7c-2.04-0.99-2.78-0.63-3.35,1.67c1.01,1.82,2.1,3.63,3.04,5.52c2.32,4.68,2.33,9.43,0.01,14.09
		c-1.03,2.08-2.26,4.08-3.6,5.98c-3.15,4.47-6.58,8.75-9.6,13.3c-5.34,8.03-8.18,16.88-7.92,26.6c0.08,2.87,0.35,5.73,0.55,8.86
		c-0.65-0.88-1.16-1.58-1.67-2.27c-5.01-6.72-11.56-10.1-20.05-9.02c-3.86,0.49-7.34,1.92-9.9,5.01c-1.69,2.04-1.87,4.26-0.55,6.25
		c0.8,1.2,1.79,2.16,3.39,1.98c1.52-0.17,2.18-1.31,2.72-2.55c0.15-0.33,0.3-0.67,0.36-1.03c0.33-1.74,1.53-2.77,2.94-3.6
		c2.3-1.35,4.71-1.24,7.18-0.54c4.75,1.33,8.09,4.52,10.92,8.33c6.52,8.8,8.42,18.78,6.99,29.43c-1.22,9.1-4.66,17.41-9.95,24.93
		c-0.3,0.42-0.67,0.79-1.26,1.48c0-3.78,0.18-7.13-0.05-10.46c-0.23-3.36-1.1-6.61-3.01-9.48c-2.17-3.25-5.21-4.09-8.73-2.39
		c-0.58,0.28-1.13,0.65-1.85,1.07c0.05,0.58,0.1,1.17,0.15,1.71c0.44,0.12,0.64,0.23,0.85,0.23c5.03,0.2,6.68,1.37,7.49,6.34
		c0.5,3.06,0.39,6.23,0.39,9.35c0,7.35-3.07,13.38-8.21,18.46c-3.41,3.36-7.31,6.07-11.55,8.21c-7.15,3.61-14.41,7.01-21.63,10.48
		c-0.13,0.06-0.34-0.06-0.4-0.07c1.45-2.13,3-4.17,4.29-6.35c5.12-8.65,8.15-18.03,9.33-27.98c0.49-4.12,0.44-8.31-0.82-12.36
		c-1.09-3.5-3.03-6.33-6.59-7.66c-2.96-1.11-6.03-0.95-9.06-0.35c-1.39,0.27-1.97,1.16-1.79,2.3c0.18,1.17,1.25,2.14,2.43,2.12
		c0.5-0.01,1-0.18,1.49-0.31c2.84-0.74,5.05,0.25,6.57,2.64c0.77,1.21,1.4,2.57,1.8,3.95c1.48,5.08,1.43,10.22,0.09,15.33
		c-1.74,6.64-5.4,12.23-9.8,17.37c-4.24,4.95-9.23,9.08-14.37,13.07c-9.88,7.66-17.38,17.39-23.87,27.98
		c-5.57,9.09-10.19,18.67-14.62,28.35c-0.32,0.71-0.69,1.4-1,2.03c0-5.35,0-10.6,0-15.85c0.01-10.58-0.16-21.16,0.88-31.71
		c0.76-7.63,1.99-15.17,4.89-22.33c3.18-7.83,8.07-14.16,16.02-17.69c3.13-1.39,6.33-2.21,9.76-1.23c4.09,1.17,7.5,3.23,9.39,7.23
		c1.23,2.6,0.78,5.08-1.35,6.97c-2.64,2.35-5.69,3.44-9.28,2.69c-1.71-0.36-3.44-0.66-5.17-0.79c-0.86-0.07-1.76,0.29-2.5,0.43
		c-0.4,2.49-0.24,3.25,1.29,4.38c1.21,0.89,2.55,1.74,3.96,2.23c5.49,1.9,12.19-0.69,15.65-5.9c3.1-4.68,2.82-10.1-0.87-14.33
		c-5.71-6.55-12.9-8.26-20.99-5.7c-10.88,3.44-18.48,10.77-23.53,20.87c-0.43,0.86-0.82,1.75-1.22,2.62
		c-0.15-0.03-0.31-0.07-0.46-0.1c-0.08-0.54-0.28-1.1-0.21-1.62c1.29-10.43,4.69-20.09,10.38-28.95c3.02-4.7,6.82-8.72,10.49-12.87
		c8.02-9.08,16-18.19,25.55-25.75c4.02-3.18,8.23-6.06,13.22-7.54c6.85-2.04,12.46,1.15,14.21,8.05c0.86,3.39,0.66,3.93-2.24,6.02
		c-0.29,0.21-0.6,0.42-0.86,0.67c-1.21,1.16-1.31,3.06-0.21,4.33c1.26,1.44,2.9,1.61,4.6,1.12c6.26-1.78,9.1-7.49,6.79-13.56
		c-2.75-7.22-11.28-12.81-18.98-12.33c-1.71,0.11-3.4,0.52-5.32,0.83c0.55-0.59,0.99-1.06,1.41-1.53c2-2.22,4.09-4.37,5.97-6.69
		c6.67-8.25,10.59-17.85,13.62-27.9c1.51-5.01,3.09-10.01,4.92-14.92c1.56-4.18,4.18-7.69,8.15-9.96c2.14-1.22,4.44-1.78,6.93-1.29
		c4.62,0.91,7.67,3.65,9.35,7.99c1.19,3.07,0.93,5.98-0.95,8.73c-1.84,2.68-4.35,3.37-7.45,2.86c-1.91-0.31-2.8,0.34-3.22,1.82
		c-0.42,1.5,0.17,2.79,1.67,3.65c3.59,2.06,7.97,1.32,10.7-1.83c4.23-4.85,4.82-12.68,1.4-18.65c-3.4-5.95-9.4-8.63-15.97-6.86
		c-5.92,1.6-10.39,5.14-13.14,10.71c-0.37,0.76-0.72,1.52-1.08,2.29c-0.4-1.42-0.45-2.76-0.62-4.1c-0.73-5.64-1.91-11.25-2.14-16.9
		c-0.31-7.93,0.5-15.63,9.64-18.97c1.06-0.39,1.95-1.33,1.89-2.71c-0.06-1.43-0.97-2.39-2.16-2.75c-1.2-0.37-2.6-0.53-3.82-0.29
		c-2.53,0.48-4.17,2.3-5.39,4.45c-1.57,2.77-2.34,5.8-2.66,8.94c-0.27,2.72-0.41,5.46-0.61,8.19c-0.1-0.02-0.2-0.01-0.23-0.04
		c-0.19-0.31-0.36-0.63-0.53-0.95c-7.9-14.79-20.58-22.42-36.92-24.25c-2.94-0.33-5.49-1.04-7.93-2.62
		c-3.64-2.36-7.08-4.92-9.6-8.51c-2.6-3.71-3.05-7.83,0.55-11.52c0.25-0.25,0.43-0.56,0.61-0.79c-0.4-2.12-1.11-2.55-2.74-1.78
		c-3.49,1.64-5.23,5.08-4.39,8.83c0.94,4.25,3.62,7.45,6.69,10.28c2.31,2.13,4.91,3.96,7.45,5.98c-0.54,0.14-1.03,0.3-1.52,0.38
		c-3.9,0.62-7.44,2.13-10.58,4.47c-9.61,7.18-14.82,16.75-14.68,28.83c0.12,10.57,5.48,18.16,14.44,23.37
		c2.52,1.47,5.31,1.95,8.23,1.68c3.19-0.29,5.45-1.87,6.1-4.31c-0.97-2.37-1.68-2.61-4.19-2.16c-1.45,0.26-3.05,0.24-4.49-0.08
		c-1.46-0.33-2.84-1.1-4.18-1.83c-12.73-6.9-16.23-20.38-8.48-32.56c7.74-12.17,22.37-17.29,36.36-12.67
		c2.24,0.74,4.38,1.78,6.68,2.72c-0.3,0.33-0.33,0.4-0.37,0.4c-0.22,0.01-0.44,0.03-0.65,0.01c-4.36-0.45-7.84,1.26-10.65,4.44
		c-2.95,3.33-4.76,7.21-4.57,11.72c0.2,4.77,4.51,6.83,8.75,4.16c-0.18-2.36-2.7-1.73-4-3.12c-0.05-0.09-0.3-0.46-0.43-0.86
		c-1.21-3.82,0-7.08,2.63-9.82c2.79-2.91,6.18-4.4,10.28-3.21c6.4,1.86,11.53,5.52,15.27,11.05c4.63,6.85,6.52,14.54,6.88,22.69
		c0.45,10.54-1.45,20.6-6.25,30.04c-0.46,0.91-1.04,1.75-1.49,2.5c0.09-4.17,0.35-8.31,0.22-12.45c-0.12-4.03-1.03-7.96-3.15-11.47
		c-2.18-3.6-5.4-5.43-9.66-5.27c-0.89,0.03-1.79,0.13-1.93,1.62c0.45,0.33,0.99,0.75,1.56,1.14c1.02,0.7,2.13,1.29,3.06,2.09
		c4.86,4.17,6.49,9.75,6.48,15.86c-0.01,9.72-2.91,18.4-10.13,25.22c-5.72,5.41-11.62,10.63-17.45,15.93
		c-0.87,0.79-1.75,1.56-2.71,2.41c-0.07-0.3-0.12-0.39-0.09-0.43c0.26-0.52,0.52-1.03,0.79-1.55c2.83-5.35,3.4-10.93,1.61-16.72
		c-3.29-10.67-13.91-18.13-26.39-15.39c-5.92,1.3-10.36,6.6-10.69,12.83c-0.38,7.22,3.33,13.48,9.14,15.42
		c2.81,0.94,6.74-0.4,8.37-2.85c0.96-1.44,0.83-3.78-0.28-5.1c-1.17-1.39-3.08-1.46-4.41-0.13c-0.4,0.4-0.76,0.85-1.21,1.37
		c-1.43-0.43-2.85-0.75-4.19-1.27c-2.75-1.05-4.23-3.21-4.28-6.04c-0.04-1.83,0.3-3.82,1.02-5.5c1.97-4.57,6.13-6.1,10.62-6.51
		c12.77-1.16,22.74,10.8,19.59,23.31c-1.37,5.43-4.65,9.64-8.56,13.48c-5.52,5.42-10.89,10.98-15.65,17.1
		c-5.6,7.2-10.07,14.99-12.57,23.83c-0.22,0.79-0.49,1.58-0.73,2.36c-1.33-6.26-3.87-11.86-7.22-17.14
		c-3.33-5.26-7.41-9.93-11.52-14.57c-4.4-4.97-8.83-9.91-13.1-14.98c-2.35-2.79-4.2-5.94-5.48-9.4c-1.83-4.94-1.71-9.82,1.13-14.28
		c3.03-4.76,7.27-8.22,12.88-9.49c5.85-1.33,11.02,0.15,14.98,4.82c3.54,4.18,2.75,9.47-1.86,12.43c-1.42,0.91-3.16,1.34-4.74,1.99
		c-0.85-0.99-1.5-1.75-1.86-2.17c-1.92-0.48-3.13-0.19-3.99,1.03c-1.29,1.83-0.93,4.46,0.78,5.96c2.54,2.24,5.96,2.68,8.95,1.09
		c4.23-2.25,6.55-5.87,7.45-10.49c1.45-7.38-2.59-14.66-9.33-16.78c-3.12-0.98-6.34-1.1-9.53-0.65
		c-15.14,2.16-23.65,19.39-16.25,32.78c0.31,0.57,0.61,1.14,0.92,1.71c-1.1-0.66-1.97-1.44-2.83-2.21
		c-5.57-5.04-11.28-9.93-16.65-15.18c-2.74-2.67-5.36-5.7-7.15-9.04c-3.42-6.41-4.74-13.45-3.79-20.75
		c0.81-6.27,3.63-11.32,9.38-14.44c0.63-0.34,1.14-0.93,1.7-1.4c-0.03-0.21-0.06-0.42-0.1-0.63c-0.77-0.23-1.53-0.64-2.31-0.65
		c-4.05-0.07-7.18,1.63-9.3,5.09c-1.58,2.59-2.43,5.43-2.9,8.41c-0.84,5.3-0.59,10.59,0.29,15.99c-0.28-0.23-0.48-0.34-0.59-0.51
		c-0.32-0.49-0.61-0.99-0.89-1.51c-3.59-6.7-5.62-13.86-6.4-21.42c-0.88-8.54-0.31-16.9,2.82-24.95c3.31-8.51,8.97-14.7,17.75-17.87
		c5.9-2.13,10.15,0.85,12.57,3.97c2.44,3.15,2.74,7.06,0.89,9.92c-1.26,0.57-2.49,1.13-4.09,1.86c0.62,0.75,0.91,1.44,1.37,1.59
		c4.74,1.5,7.64-0.79,7.8-5.01c0.1-2.62-0.54-5.09-1.75-7.36c-2.93-5.55-7.08-9.24-13.88-8.63c-0.08,0.01-0.18-0.12-0.54-0.38
		c1.78-0.79,3.33-1.55,4.93-2.17c15.64-6.11,31.89,0.62,39.01,13.78c2.66,4.92,3.7,10.14,2.62,15.63
		c-1.42,7.2-6.07,11.92-12.27,15.36c-2.93,1.62-5.87,2.72-9.37,1.69c-2.2-0.65-3.84,1.28-3.03,3.34c0.27,0.68,0.93,1.3,1.57,1.71
		c2.67,1.71,5.61,1.93,8.63,1.26c3.35-0.75,6.23-2.47,8.74-4.76c5.66-5.16,9.24-11.34,9.57-19.21c0.33-7.9-2-14.97-6.48-21.36
		c-4.69-6.69-10.83-11.34-19.07-12.82c-0.44-0.08-0.85-0.27-1.23-0.4c2.37-1.84,4.69-3.48,6.83-5.34c3-2.61,5.52-5.63,6.93-9.42
		c1.59-4.27,0.07-8.14-3.87-10.16c-1.24-0.64-2.22-0.61-3.08,1.13c0.46,0.66,0.98,1.48,1.57,2.25c1.94,2.54,2.41,5.32,1.03,8.21
		c-0.71,1.5-1.65,2.93-2.72,4.2c-2.7,3.23-6.19,5.5-9.74,7.69c-1.59,0.98-3.26,1.44-5.14,1.55c-2.24,0.13-4.51,0.41-6.7,0.9
		c-13.98,3.15-24.75,10.65-31.47,23.53c-0.17,0.33-0.45,0.59-0.94,1.24c0-1.84,0.16-3.24-0.03-4.6c-0.48-3.3-0.95-6.63-1.75-9.86
		c-0.64-2.57-2.02-4.82-4.28-6.42c-2.13-1.51-4.72-1.69-6.79-0.43c-2.02,1.24-2.15,3.43-0.23,4.82c0.52,0.38,1.13,0.76,1.74,0.83
		c1.42,0.17,2.37,0.97,3.34,1.9c2.27,2.2,3.66,4.87,4.49,7.88c1.21,4.39,0.87,8.83,0.31,13.25c-0.7,5.47-1.56,10.92-2.36,16.5
		c-0.2-0.38-0.42-0.72-0.57-1.09c-2.15-5.18-5.83-8.9-10.96-11.03c-5.14-2.14-10.27-2.2-14.9,1.38c-6.81,5.25-8.06,16.03-2.75,22.8
		c2.57,3.27,6.35,4.25,10.16,2.62c2.03-0.87,3.04-2.35,2.62-3.96c-0.4-1.56-1.56-2.37-4.04-1.85c-2.81,0.58-4.99-0.54-6.64-2.78
		c-1.71-2.32-2.16-4.93-1.43-7.68c2.14-8.07,11.7-12.86,19.24-6.1c2.85,2.56,4.81,5.72,6.05,9.24c2.19,6.25,4.08,12.6,6.13,18.9
		c3.36,10.33,8.45,19.66,15.99,27.56c1.08,1.13,2.16,2.26,3.51,3.68c-1.75-0.38-3.07-0.77-4.41-0.93
		c-8.58-1.06-16.55,4.89-19.63,11.29c-2.32,4.83-1.51,9.49,2.36,12.4c1.89,1.43,3.91,2.88,6.59,2.22c1.31-0.33,2.28-1.02,2.63-2.33
		c0.38-1.38,0.07-2.59-1.18-3.47c-0.89-0.63-1.75-1.31-2.6-1.95c-1.28-2.23-0.24-4.31,0.47-6.33c1.63-4.65,6.22-7.5,11.02-6.62
		c2.54,0.46,5.1,1.29,7.4,2.45c6.51,3.3,12.02,8.02,17.05,13.22c6.74,6.97,13.2,14.22,19.82,21.3
		c10.09,10.79,15.97,23.54,17.92,38.13c0.09,0.67-0.14,1.39-0.23,2.08c-0.56-0.25-0.75-0.47-0.85-0.73
		c-1.63-4.37-4.19-8.18-7.34-11.57c-5.8-6.23-12.52-10.91-21.24-11.99c-7.63-0.95-13.55,2.06-17.89,8.18
		c-1,1.41-1.56,3.34-1.71,5.09c-0.58,6.85,5.25,13.38,12.24,14.06c3.43,0.33,6.51-0.38,9.22-2.56c1.45-1.16,2.07-2.57,1.37-4.69
		c-0.83-0.1-1.75-0.36-2.64-0.3c-1.52,0.11-3.06,0.27-4.53,0.66c-3.05,0.81-5.77,0.14-8.34-1.49c-3.59-2.3-4.34-5.55-2.13-9.19
		c2.89-4.75,9.68-7.53,15.04-6.08c3.34,0.91,6.39,2.44,9.13,4.56c6.41,4.94,9.89,11.76,12.13,19.3c2.87,9.65,3.63,19.62,3.9,29.61
		c0.3,11.45,0.33,22.9,0.47,34.35c0,0.35-0.07,0.7-0.15,1.49c-0.5-1.04-0.8-1.62-1.07-2.21c-4.45-9.91-9.2-19.67-14.91-28.93
		c-7.14-11.59-15.64-21.91-26.68-30.1c-7.49-5.56-13.83-12.31-18.29-20.64c-3.18-5.96-4.48-12.28-3.62-19
		c0.35-2.76,0.98-5.47,2.62-7.8c1.52-2.16,3.56-3.16,6.23-2.58c0.43,0.09,0.85,0.22,1.28,0.29c1.48,0.22,2.65-0.58,2.93-1.97
		c0.25-1.27-0.29-2.15-1.89-2.39c-1.86-0.28-3.77-0.41-5.65-0.33c-4.15,0.19-7.13,2.29-8.96,6.01c-1.17,2.39-1.73,4.94-1.87,7.58
		c-0.3,5.43,0.38,10.77,1.76,16.01c2.42,9.17,5.88,17.85,12.03,25.24c0.04,0.04-0.06,0.2-0.11,0.32c-4.16-1.91-8.34-3.78-12.47-5.75
		c-5.73-2.72-11.44-5.47-16.58-9.25c-5.79-4.27-10.26-9.48-12.03-16.66c-0.97-3.96-0.78-7.98-0.61-11.98
		c0.08-1.92,0.56-3.89,1.21-5.72c0.86-2.44,2.77-3.66,5.42-3.58c0.65,0.02,1.3,0,2.32,0c-0.14-0.81-0.04-1.64-0.4-2.03
		c-2.2-2.41-6.89-2.47-9.09,0.06c-1.25,1.44-2.27,3.25-2.89,5.06c-1.55,4.52-2.07,9.22-1.52,14c0.07,0.6,0.01,1.22,0.01,2.16
		c-0.43-0.52-0.67-0.77-0.87-1.05c-7.23-10.5-11.31-21.97-10.42-34.88c0.63-9.23,4.14-17.21,10.75-23.76
		c2.66-2.64,5.84-4.35,9.58-4.85c3.24-0.43,7.2,1.34,8.08,4.86c0.17,0.69,0.48,1.39,0.88,1.99c1.08,1.63,2.81,1.85,4.32,0.61
		c2.26-1.85,2.62-4.85,0.82-7.22c-1.3-1.72-3-2.97-4.97-3.83c-7.74-3.37-17.6-1.98-24.33,6.4c-0.76,0.94-1.47,1.92-2.21,2.88
		c-0.24-1.06-0.17-1.98-0.08-2.89c0.5-4.81,0.43-9.61-0.4-14.38c-1.44-8.25-5.32-15.35-10.18-22.02c-3.13-4.3-6.38-8.53-9.24-13.01
		c-3.54-5.55-3.68-11.39-0.44-17.21c0.85-1.52,1.76-3.01,2.7-4.62c-0.48-0.68-0.92-1.3-1.45-2.05c-0.89,0.3-1.67,0.46-2.35,0.81
		c-3.95,2.05-5.76,5.43-5.88,9.77c-0.12,4.56,1.3,8.75,3.23,12.81c0.41,0.85,0.82,1.7,1.43,2.94c-5.71-3.32-11.33-4.59-17.43-3.91
		c-7.5,0.83-13.57,4.21-18.26,10.04c-2.63,3.27-4.12,7.08-4.08,11.31c0.1,10.59,5.14,18.31,14.18,23.48
		c4.25,2.43,8.84,3.07,13.73,2.11c10.9-2.13,14.68-14.4,12.44-21.03c-1.6-4.73-5.9-6.63-10.34-6.16c-1.37,0.14-2.23,1.18-2.32,2.5
		c-0.09,1.27,0.7,2.44,1.96,2.83c0.56,0.17,1.14,0.24,1.71,0.36c2.16,0.47,3.38,1.78,3.76,3.99c0.98,5.75-4.22,12.11-10.26,12.72
		c-10.77,1.09-21.48-11.37-19.86-20.29c1.71-9.42,7.75-16.18,17.21-16.9c7.93-0.6,14.55,2.5,20,8.1c6.28,6.46,8.93,14.54,9.86,23.3
		c0.74,6.96-0.04,13.82-1.35,20.65c-0.23,1.2-0.59,2.37-0.96,3.83c-1.91-3.46-3.72-5.26-6.59-6.31c-1.13-0.41-2.42-0.6-3.62-0.54
		c-2.05,0.1-3.6,2.17-3.33,4.13c0.21,1.52,1.53,2.2,3.8,1.95c0.07-0.01,0.15-0.01,0.22-0.03c1.54-0.55,2.63,0.21,3.27,1.44
		c0.92,1.8,1.94,3.65,2.35,5.6c0.94,4.48,1.54,9.04,2.27,13.56c0.88,5.46,1.43,11,2.7,16.36c3.8,15.96,11.53,29.82,23.09,41.5
		c1.68,1.7,3.45,3.31,5.3,5.07c-0.39,0.02-0.63,0.1-0.81,0.03c-8.86-3.45-17.48-7.36-24.89-13.47
		c-6.89-5.69-11.82-12.63-13.49-21.61c-0.19-1.04-0.71-2.05-1.24-2.99c-0.59-1.05-1.51-1.57-2.85-0.97c-1.45,1.75-1.7,3.9-1.54,6.12
		c0.29,4.17,2.28,7.64,4.68,10.9c5.45,7.41,12.35,13.16,20.3,17.71c6.98,3.99,14.39,7.04,21.82,10.05
		c8.18,3.31,16.37,6.57,24.05,10.96c0.85,0.48,1.67,1,2.73,1.64c-0.51,0.11-0.65,0.17-0.79,0.17c-0.22,0-0.44-0.03-0.65-0.06
		c-7.78-1.32-14.42,1.05-20.03,6.39c-4.31,4.1-6.8,9.21-6.66,15.18c0.19,8.34,6.29,15.52,14.44,17.33
		c4.73,1.05,9.43,0.99,13.81-1.47c3.24-1.82,4.75-5.14,3.96-8.71c-0.13-0.6-0.69-1.11-1.32-2.06c-0.89,1.2-1.65,1.97-2.12,2.89
		c-1,1.99-2.66,3.08-4.68,3.66c-4.63,1.31-8.99,0.51-12.94-2.14c-2.83-1.9-4.93-4.51-4.98-8.07c-0.06-3.51,0.63-6.95,2.29-10.14
		c2.2-4.24,5.78-6.44,10.39-7.1c3.43-0.49,6.84-0.15,10.18,0.68c10.4,2.59,19.5,7.7,27.58,14.61c9.08,7.77,14.74,17.75,18.09,29.12
		c2.67,9.05,4.03,18.34,5.27,27.65c0.18,1.33,0.33,2.67,0.49,4c-0.87-0.45-1.4-1.03-1.92-1.62c-9.01-10.31-19.86-17.95-32.75-22.62
		c-9.66-3.49-19.75-4.95-29.87-6.31c-6.06-0.81-12.12-1.61-17.99-3.47c-8.46-2.68-14.44-7.96-17.45-16.43
		c-0.92-2.6-2.61-4.71-4.62-6.54c-0.61-0.56-1.46-0.86-2.21-1.28c-1.83,1.21-1.93,2.85-1.77,4.55c0.53,5.56,2.69,10.41,6.54,14.45
		c1.13,1.19,2.46,2.2,3.92,3.48c-0.86-0.07-1.44-0.07-2-0.17c-2.87-0.52-5.74-1.01-8.59-1.61c-8.39-1.76-16.48-4.35-23.88-8.79
		c-4.09-2.46-7.87-5.3-10.74-9.18c-3.77-5.09-5.96-10.78-6.65-17.1c-0.72-6.65,0.62-12.77,4.38-18.29
		c4.67-6.85,13.53-10.6,21.17-8.79c6.56,1.56,11.31,5.31,12.95,12.17c0.9,3.76-1.41,8.86-4.56,10.05c-2.61,0.98-5.35,1.37-8.14,0.89
		c-1.03-1.39-2.03-2.77-3.95-2.84c-1.7,0.41-2.54,1.61-2.87,3.23c-0.67,3.22,0.77,5.97,3.93,6.85c6.15,1.7,11.77,0.64,16.26-4.14
		c5.51-5.87,5.89-15.65,1.02-22.47c-5.49-7.7-14.93-10.93-24.47-8.22c-9.86,2.8-17.05,8.91-21.77,17.97
		c-0.37,0.71-0.73,1.43-1.1,2.14c-0.93-5.06-1.07-9.98-0.84-14.93c0.31-6.55,0.48-13.11,0.71-19.67c0.13-3.49,0.05-7.01,0.45-10.47
		c0.85-7.42,3.5-13.83,10.72-17.42c1.33-0.66,2.24-1.87,1.76-3.85c-0.64-0.2-1.42-0.71-2.1-0.6c-1.56,0.24-3.18,0.56-4.58,1.24
		c-3.27,1.58-5.44,4.33-7.11,7.49c-0.5,0.95-0.95,1.94-1.31,2.68c-1.59-3.61-3.09-7.3-4.83-10.87c-1.22-2.48-2.76-4.8-4.19-7.17
		c-2.63-4.38-5.29-8.76-6.54-13.77c-0.52-2.09-0.96-4.33-0.76-6.44c0.39-4.2,3.12-7.11,6.36-9.53c1.9-1.42,4.01-2.31,6.4-2.59
		c3.71-0.43,6.94,2.35,6.81,6.66c-1.03,0.44-2.08,0.89-3.06,1.32c-0.43,1.5-0.34,2.63,1.11,3.47c2.58,0.09,4.94-0.48,6.5-2.9
		c0-1.36,0.16-2.69-0.03-3.98c-1.11-7.82-6.82-11.39-14.4-9.12c-10.23,3.07-19.4,15.13-12.28,29.18c0.31,0.61,0.62,1.22,1.05,2.08
		c-1.99-0.76-3.61-1.6-5.34-2.01c-11.5-2.71-21.55,0.27-29.98,8.34c-4.79,4.59-7.02,10.35-5.5,17.1
		c1.76,7.86,6.74,11.87,14.32,11.67c2.83-0.07,4.95-1.73,5.89-4.41c0.97-2.76,0.28-3.97-3.1-4.81c-0.88,0.82-1.95,1.82-3.14,2.93
		c-3.97,0.74-7.15-1.75-8.05-5.39c-1.33-5.33-0.35-10.28,3.55-14.17c9.85-9.81,25.89-9.13,35.11,1.33c1.76,2,3.18,4.23,4.02,7.12
		c-1.18-0.33-2.07-0.75-2.97-0.78c-1.35-0.05-2.76-0.03-4.04,0.33c-1.24,0.35-1.7,1.78-1.36,3.08c0.31,1.17,1.32,2.05,2.58,1.9
		c2.36-0.28,4.07,0.81,5.61,2.35c3.27,3.27,4.75,7.38,4.92,11.84c0.23,5.94,0.06,11.89,0.06,18.03c-0.94-1.41-1.77-2.76-2.69-4.04
		c-1.62-2.26-3.34-4.44-5.87-5.78c-2.42-1.29-3.99-0.94-5.71,1.22c-0.22,1.32,0.27,2.42,1.28,3.27c0.83,0.7,1.67,1.45,2.63,1.95
		c3.08,1.58,4.96,4.19,6.5,7.15c1.68,3.21,2.65,6.65,2.98,10.22c0.54,5.81,0.87,11.63,1.32,17.44c0.41,5.2,1.58,10.21,3.96,14.89
		c0.41,0.8,0.85,1.58,1.28,2.36c-0.12,0.12-0.25,0.24-0.37,0.37c-1.93-1.12-3.93-2.12-5.77-3.37c-7.62-5.22-12.05-12.69-14.89-21.28
		c-0.77-2.34-1.36-4.82-2.54-6.95c-4.31-7.79-10.89-12.79-19.53-14.99c-5.52-1.41-10.69-0.73-15.29,2.73
		c-0.58,1.03-0.83,1.96,0.48,3.13c1.08,0.04,2.52,0.12,3.95,0.15c3.78,0.08,7.6-0.16,11.34,0.26c5.6,0.63,9.91,3.62,12.98,8.36
		c0.28,0.43,0.42,0.94,0.64,1.46c-1.56-0.34-2.89-0.71-4.25-0.91c-3.28-0.47-6.59,1.34-7.92,4.25c-0.51,1.11-0.73,2.21,0.16,3.3
		c1.62,0.62,2.95,0.03,4.24-0.94c0.62-0.47,1.32-0.95,2.06-1.13c2.58-0.64,8.15,1.76,9.48,4.01c0.18,0.3,0.24,0.68,0.33,1.03
		c2.22,8.5,7.36,14.92,14.26,20.1c5.16,3.88,10.85,6.83,16.58,9.73c0.95,0.48,1.91,1.1,2.63,1.88c4.72,5.08,10.23,9.1,16.28,12.42
		c0.94,0.51,1.87,1.04,2.8,1.56c-5.42-0.11-10.58,0.98-15.71,2.24c-4.52,1.11-9.03,2.3-13.58,3.26c-4.23,0.89-8.5,1.18-12.77-0.06
		c-3.09-0.9-5.55-2.47-6.99-5.47c-0.49-1.03-1.23-1.94-2.05-3.21c-1.19,0.41-2.26,0.78-3.21,1.11c-0.59,5.25,2.36,8.18,6.07,10.95
		c-0.69,0.16-1.03,0.29-1.37,0.32c-4.76,0.32-9.48,0.21-14.09-1.17c-5.29-1.58-9.69-4.4-12.43-9.34c-2.17-3.91-2.97-8.06-1.32-12.39
		c1.54-4.04,5.17-5.65,9.21-4.17c0.41,0.15,0.81,0.33,1.21,0.51c2.81,1.2,4.27,0.46,5.2-2.92c-0.43-0.57-0.89-1.41-1.56-2
		c-4.24-3.69-10.17-3.76-14.33,0.13c-5.62,5.26-7.65,11.71-5.5,19.27c0.11,0.38,0.21,0.76,0.46,1.66c-1-0.87-1.6-1.37-2.18-1.91
		c-4.58-4.21-7.67-9.52-10.81-14.78c-2.7-4.51-5.55-8.89-9.11-12.81c-5.12-5.63-13.11-4.42-17.35-0.02
		c-3.06,3.18-3.83,6.97-2.29,11.12c1.44,3.87,5.79,5.91,9.12,4.37c0.7-1.6,0.09-2.97-0.87-4.24c-0.3-0.4-0.73-0.71-1.09-1.08
		c-3.27-3.4-2.18-7.19,2.39-8.37c3.24-0.83,6.62,0.65,8.75,3.96c2.56,3.99,5.03,8.04,7.57,12.04c3.92,6.18,8.12,12.13,13.88,16.78
		c1,0.81,2.02,1.59,3.25,2.55c-0.52,0.17-0.77,0.27-1.02,0.33c-5.54,1.35-10.55,3.79-14.93,7.45c-3.33,2.79-6.14,6.03-8.11,9.93
		c-0.93,1.85-0.36,3.33,1.43,4.14c1.54,0.69,2.61,0.27,3.7-1.64c2.79-4.93,6.51-8.97,11.4-11.84c6.82-4,14-5.13,21.6-2.46
		c7.48,2.63,15.17,2.88,22.88,1.6c5.88-0.98,11.68-2.42,17.52-3.67c1.98-0.42,3.95-0.89,5.92-1.33c-1.7,0.95-3.5,1.53-5.27,2.18
		c-4.2,1.55-8.33,3.3-11.32,6.78c-3.81,4.44-5.63,9.52-3.95,15.39c0.94,3.27,3.63,5.2,6.79,5.13c1.02-0.02,1.87-0.25,2.41-1.43
		c-0.03-0.48-0.06-1.13-0.09-1.67c-0.29-0.33-0.44-0.6-0.68-0.75c-0.55-0.35-1.14-0.63-1.72-0.94c-1.75-0.91-2.34-1.95-2.17-3.89
		c0.37-4.16,2.03-7.72,5.06-10.62c4.02-3.84,8.93-6.08,14.18-7.46c6.05-1.59,12.2-2.75,18.32-4.07c2.77-0.6,5.54-1.29,8.43-0.77
		c6.3,1.15,12.61,2.23,18.9,3.42c2.79,0.53,5.54,1.26,8.39,1.92c-0.19,0.33-0.21,0.42-0.26,0.44c-0.67,0.28-1.34,0.54-2.01,0.82
		c-4.43,1.79-8.19,4.46-10.89,8.46c-3.52,5.23-4.43,10.98-3.37,17.13c1.91,11.02,11.45,23.25,27.52,21.07
		c2.58-0.35,5.26-0.74,7.32-2.57c2.5-2.21,3.95-5.05,4.41-8.33c0.14-0.97-0.32-2.02-0.46-2.84c-2.06-0.68-3.4-0.04-4.65,0.86
		c-2.79,5.51-7.4,7.24-12.53,6.55c-11.09-1.48-18.46-11.42-16.83-21.87c1.04-6.64,6.53-12.83,13.1-14.35
		c8.93-2.06,17.91-2.15,26.94-0.79c15.62,2.37,29.63,8.41,41.94,18.34c1.95,1.57,3.75,3.31,5.62,4.97
		c-0.09,0.12-0.17,0.25-0.26,0.37c-0.44-0.19-0.87-0.38-1.31-0.57c-3.89-1.63-7.68-3.55-11.68-4.84
		c-7.12-2.29-14.32-2.44-21.39,0.47c-2.09,0.86-3.8,2.16-5.03,4.04c-1.13,1.73-0.84,2.53,1.22,3.54c0.28-0.13,0.62-0.27,0.93-0.45
		c6.39-3.62,13.28-4.5,20.31-2.94c17.14,3.8,27.96,14.58,32.46,31.34c1.27,4.73,2.22,9.53,2.94,14.35
		c6.44-4.15,12.52-9.06,18.19-14.72l0.15-0.15c0.69-0.69,1.4-1.4,2.15-2.09c0.69-0.63,1.44-0.89,1.76-1
		c0.4-0.15,0.81-0.22,1.23-0.22c0.81,0,1.61,0.28,2.25,0.82c1.86,1.55,3.69,3.12,5.51,4.68c4.04,3.46,7.86,6.72,11.92,9.8
		c1.24,0.94,2.52,1.84,3.81,2.71c0.61-4.09,1.38-8.17,2.34-12.21c4.16-17.55,14.93-28.84,32.53-33.18
		c6.73-1.66,13.45-1.66,19.51,2.58c0.41,0.29,0.9,0.53,1.38,0.63c0.62,0.13,1.28,0.08,2.06,0.12c0.18-0.26,0.35-0.5,0.5-0.75
		c0.15-0.25,0.28-0.5,0.39-0.71c-0.06-0.21-0.08-0.36-0.13-0.49c-0.09-0.2-0.19-0.4-0.3-0.58c-3.5-5.96-9.16-7.62-15.51-7.46
		c-6.41,0.17-12.49,1.99-18.33,4.61c-1.9,0.85-3.78,1.76-5.67,2.64c0.31-0.74,0.74-1.28,1.25-1.73
		c19.16-16.99,41.39-24.76,67.01-22.23c2.73,0.27,5.59,0.67,8.08,1.74c13.02,5.61,14.66,21.29,5.51,30.25
		c-3.44,3.37-7.7,4.78-12.39,5.41c-3.74,0.5-6.77-0.61-9.23-3.34c-0.96-1.07-1.7-2.35-2.59-3.61c-1.3-0.62-2.64-1.45-4.15-0.51
		c-0.93,1.26-0.78,2.53-0.43,3.84c0.96,3.66,2.61,6.97,6.23,8.5c4.39,1.85,9.09,2.09,13.76,1.15c13.72-2.77,22.11-18.18,18.77-31.21
		c-1.97-7.69-7.1-12.52-14.29-15.39c-0.63-0.25-1.25-0.52-2.04-0.85c0.39-0.25,0.5-0.37,0.62-0.39c7.92-1.6,15.83-3.27,23.77-4.74
		c2.41-0.45,4.97-0.73,7.38-0.42c4.61,0.59,9.18,1.57,13.74,2.56c6.2,1.34,12.36,2.87,17.93,6.07c5.02,2.87,8.75,6.75,9.72,12.74
		c0.59,3.66,0.47,3.92-2.91,5.83c-0.13,0.07-0.25,0.15-0.38,0.22c-0.99,0.6-1.38,1.49-1.13,2.61c0.28,1.21,1.26,1.6,2.33,1.57
		c2.21-0.05,4.12-0.83,5.52-2.64c1.6-2.07,2.2-4.52,2-7c-0.46-5.74-2.98-10.42-7.82-13.75c-3.53-2.43-7.54-3.78-11.53-5.16
		c-0.66-0.23-1.31-0.45-1.97-0.67c0.38-0.27,0.67-0.25,0.94-0.19c8.71,2.06,17.33,4.52,26.3,5.33c6.47,0.59,12.83,0.21,18.98-1.99
		c6.85-2.45,13.48-1.83,19.9,1.35c5.79,2.86,10.17,7.24,13.32,12.88c1.11,1.98,2.34,2.41,3.9,1.57c1.73-0.94,2.13-2.52,1.05-4.46
		c-1.75-3.14-3.94-5.95-6.61-8.38c-4.84-4.42-10.49-7.29-16.94-8.76c0.2-0.25,0.3-0.47,0.46-0.57c3.55-2.05,6.28-4.99,8.63-8.27
		c2.76-3.85,5.28-7.87,7.99-11.75c2.71-3.88,5.42-7.77,8.35-11.48c1.09-1.37,2.71-2.47,4.3-3.26c2.52-1.25,5.55-0.12,7.03,2.29
		c1.24,2.02,0.69,4.55-1.54,6.39c-1.58,1.31-2.06,2.88-1.76,4.74c1.69,1.07,1.69,1.07,3.12,0.71c5.07-1.3,7.91-6.3,6.57-11.35
		C1237.95,452.9,1235.43,450.89,1232.32,449.34z"/>
	<g>
		<path class="st0" d="M1211.57,617.93c0,1.11,0,1.95,0,3.02c-167.59,0-335.06,0-502.89,0c-0.06-0.89-0.12-1.82-0.2-3.02
			C876.16,617.93,1043.62,617.93,1211.57,617.93z"/>
	</g>
	<g>
		<path class="st0" d="M1211.54,708.68c0,1.11,0,1.95,0,3.03c-167.61,0-335.05,0-502.85,0c-0.05-0.95-0.11-1.87-0.17-3.03
			C876.19,708.68,1043.64,708.68,1211.54,708.68z"/>
	</g>
	<path class="st2" d="M1063.05,589.21c-12.92,0.38-25.78-0.23-38.53-2.35c-17.12-2.84-33.14-8.56-47.09-19.12
		c-6.04-4.57-11.68-9.67-17.57-14.58c-0.1,0.04-0.4,0.11-0.6,0.29c-0.75,0.69-1.48,1.42-2.2,2.15
		c-14.41,14.4-31.38,24.31-51.22,29.15c-15.33,3.73-30.92,4.79-46.64,4.54c-1.72-0.03-3.44,0-5.47,0
		c0.65,6.82,1.27,13.28,1.87,19.64h96.75v0h-0.14v-7.64c-5.36-2.84-9.01-8.5-9.01-15.04c0-9.38,7.52-16.98,16.81-16.98
		c9.29,0,16.83,7.61,16.83,16.98c0,6.54-3.67,12.2-9.03,15.04v7.64h-0.13v0h96.84c0.6-6.6,1.18-12.95,1.8-19.71
		C1065.02,589.2,1064.04,589.18,1063.05,589.21z"/>
	<path class="st2" d="M967.8,720.3v11.22c0,2.14-3.52,3.9-7.8,3.9c-4.28,0-7.8-1.76-7.8-3.9V720.3c-18.06,0-36.14,0-54.34,0
		c18.35,18.68,39.67,31.81,62.19,43.61c22.41-11.84,43.88-24.89,62.1-43.61C1003.94,720.3,985.86,720.3,967.8,720.3z"/>
</g>
</svg>
